<svg id="Layer_1" data-name="Layer 1" xmlns="http://www.w3.org/2000/svg" viewBox="0 0 266.13 285.2"><defs><style>

#NoTilt {
    display:inline;

}

#Tilt {
    display:none;

}

svg:hover #NoTilt {    
    display:none;
}

svg:hover #Tilt {    
    display:inline;
}

.cls-1{fill:#4a4a4b;}.cls-2{fill:#f7ce94;}.cls-3{fill:#cce3c4;}.cls-4{fill:#96c783;}.cls-5{fill:#f99c1c;}.cls-6{fill:#febd11;}</style></defs><title>first-bundle_</title><circle class="cls-1" cx="133.81" cy="147.98" r="123.52"/><g id="NoTilt"><rect class="cls-2" x="82.77" y="189.16" width="107.76" height="16.78" rx="0.74"/><rect class="cls-3" x="135.78" y="136.84" width="5.54" height="52.11"/><path class="cls-4" d="M139.24,187.68s-9.81,10.6-19.88,9.2-16.6-14.29-16.6-14.29Z"/><path class="cls-3" d="M102.76,182.59s9.8-10.6,19.88-9.19,16.6,14.28,16.6,14.28Z"/><path class="cls-5" d="M175,104.82a33.54,33.54,0,1,0-33.46,33.61A33.54,33.54,0,0,0,175,104.82Z"/><path class="cls-6" d="M169.29,104.83a27.82,27.82,0,1,0-27.75,27.89A27.82,27.82,0,0,0,169.29,104.83Z"/><path class="cls-2" d="M169.29,104.83a27.82,27.82,0,1,0-27.75,27.89A27.82,27.82,0,0,0,169.29,104.83Z"/><path class="cls-5" d="M139.81,124.08v-5a14.5,14.5,0,0,1-7.57-2.16l1.18-3.31a13.23,13.23,0,0,0,7.12,2.11c3.51,0,5.87-2,5.87-4.86s-1.94-4.39-5.6-5.86c-5-2-8.16-4.23-8.17-8.53,0-4.1,2.9-7.22,7.44-8v-5h3.06l0,4.79A13.09,13.09,0,0,1,149.56,90l-1.23,3.26a11.91,11.91,0,0,0-6.23-1.66c-3.8,0-5.23,2.28-5.22,4.26,0,2.57,1.84,3.85,6.14,5.61,5.09,2.07,7.67,4.63,7.67,9,0,3.9-2.69,7.56-7.78,8.41v5.14Z"/><path class="cls-4" d="M138.8,147.29s-18.85,12.48-33.65,6.59S85.21,126,85.21,126Z"/><path class="cls-3" d="M85.21,126s18.85-12.48,33.65-6.59,19.94,27.89,19.94,27.89Z"/><path class="cls-4" d="M137.09,173.84s21.18,12.91,37.16,5.86S195,148.31,195,148.31Z"/><path class="cls-3" d="M195,148.31s-21.18-12.91-37.16-5.86-20.73,31.39-20.73,31.39Z"/><path class="cls-6" d="M120.16,64.1a1.39,1.39,0,0,1-1.14-.48l-6.84-8a1.39,1.39,0,1,1,2.11-1.8l6.84,8a1.39,1.39,0,0,1-.15,2A1.36,1.36,0,0,1,120.16,64.1Z"/><path class="cls-6" d="M152.86,62.12a1.36,1.36,0,0,1-.94-.3,1.39,1.39,0,0,1-.23-2l8-10a1.39,1.39,0,0,1,2.17,1.73l-8,10A1.39,1.39,0,0,1,152.86,62.12Z"/><path class="cls-6" d="M137.52,61a1.4,1.4,0,0,1-1.47-1.28l-1.12-15.37a1.39,1.39,0,0,1,1.28-1.49h0a1.39,1.39,0,0,1,1.46,1.28l1.12,15.37A1.38,1.38,0,0,1,137.53,61Z"/><path class="cls-6" d="M166.64,58.19h0c4.14-.39,5.28-1.15,7.23-4.82h0c.38,4.14,1.14,5.28,4.81,7.23h0c-4.14.39-5.28,1.14-7.23,4.81h0C171.07,61.27,170.31,60.14,166.64,58.19Z"/><path class="cls-6" d="M89.36,89.27h0c3.17-.3,4-.88,5.54-3.7h0c.3,3.18.88,4.05,3.69,5.55h0c-3.17.29-4,.87-5.54,3.69h0C92.76,91.64,92.17,90.76,89.36,89.27Z"/><path class="cls-6" d="M179.63,85.4h0c1.63-1.48,1.87-2.16,1.53-4.33h0c1.47,1.63,2.15,1.87,4.33,1.53h0c-1.63,1.47-1.87,2.15-1.53,4.33h0C182.48,85.3,181.8,85.06,179.63,85.4Z"/><path class="cls-6" d="M193.51,112.2h0a2.19,2.19,0,0,0,.89-2.53h0a2.21,2.21,0,0,0,2.54.89h0a2.18,2.18,0,0,0-.9,2.53h0A2.19,2.19,0,0,0,193.51,112.2Z"/><path class="cls-6" d="M106.33,71.67h0A2.2,2.2,0,0,0,105,69.33h0A2.2,2.2,0,0,0,107.36,68h0a2.2,2.2,0,0,0,1.31,2.34h0A2.2,2.2,0,0,0,106.33,71.67Z"/><path class="cls-2" d="M180.84,208.77H92.12l7.61,57.92a123.45,123.45,0,0,0,74.09-1.86Zm-69.91,27.61h-15l-.45-4h15.45a2,2,0,0,1,0,4Z"/><polygon class="cls-2" points="91.21 205.9 91.93 208.77 92.12 208.77 91.75 205.9 91.21 205.9"/></g><g id="Tilt"><rect class="cls-2" x="82.77" y="189.16" width="107.76" height="16.78" rx="0.74"/><rect class="cls-3" x="135.78" y="136.84" width="5.54" height="52.11"/><path class="cls-4" d="M138.4,186.88s-13.49,5.17-21.9-.55-8.57-20.16-8.57-20.16Z"/><path class="cls-3" d="M107.93,166.17s13.49-5.16,21.9.55,8.57,20.16,8.57,20.16Z"/><path class="cls-5" d="M175,104.82a33.54,33.54,0,1,0-33.46,33.61A33.54,33.54,0,0,0,175,104.82Z"/><path class="cls-6" d="M169.29,104.83a27.82,27.82,0,1,0-27.75,27.89A27.82,27.82,0,0,0,169.29,104.83Z"/><path class="cls-2" d="M169.29,104.83a27.82,27.82,0,1,0-27.75,27.89A27.82,27.82,0,0,0,169.29,104.83Z"/><path class="cls-5" d="M139.81,124.08v-5a14.5,14.5,0,0,1-7.57-2.16l1.18-3.31a13.23,13.23,0,0,0,7.12,2.11c3.51,0,5.87-2,5.87-4.86s-1.94-4.39-5.6-5.86c-5-2-8.16-4.23-8.17-8.53,0-4.1,2.9-7.22,7.44-8v-5h3.06l0,4.79A13.09,13.09,0,0,1,149.56,90l-1.23,3.26a11.91,11.91,0,0,0-6.23-1.66c-3.8,0-5.23,2.28-5.22,4.26,0,2.57,1.84,3.85,6.14,5.61,5.09,2.07,7.67,4.63,7.67,9,0,3.9-2.69,7.56-7.78,8.41v5.14Z"/><path class="cls-4" d="M138.82,144.51s-14.12,17.66-30,16.6-27.54-20.42-27.54-20.42Z"/><path class="cls-3" d="M81.27,140.69s14.11-17.66,30-16.61,27.55,20.43,27.55,20.43Z"/><path class="cls-4" d="M137.72,169.28s15.4,19.44,32.83,18.36,30.32-22.27,30.32-22.27Z"/><path class="cls-3" d="M200.87,165.37S185.47,145.93,168,147s-30.31,22.27-30.31,22.27Z"/><path class="cls-6" d="M117.31,66a1.64,1.64,0,0,1-1.34-.57L108,56a1.62,1.62,0,0,1,2.47-2.1l8,9.41A1.62,1.62,0,0,1,117.31,66Z"/><path class="cls-6" d="M155.55,63.67a1.6,1.6,0,0,1-1.1-.34,1.63,1.63,0,0,1-.27-2.28l9.31-11.75a1.62,1.62,0,0,1,2.54,2l-9.31,11.74A1.58,1.58,0,0,1,155.55,63.67Z"/><path class="cls-6" d="M137.6,62.36a1.61,1.61,0,0,1-1.71-1.49l-1.31-18a1.62,1.62,0,0,1,1.5-1.74h0a1.62,1.62,0,0,1,1.71,1.5l1.31,18a1.61,1.61,0,0,1-1.5,1.73Z"/><path class="cls-6" d="M184.51,64.79h0c4.14-.38,5.28-1.14,7.23-4.81h0c.39,4.14,1.14,5.28,4.81,7.23h0c-4.14.38-5.27,1.14-7.22,4.81h0C188.94,67.88,188.18,66.74,184.51,64.79Z"/><path class="cls-6" d="M76.65,98.5h0c3.18-.29,4-.87,5.55-3.69h0c.29,3.17.87,4,3.69,5.54h0c-3.18.3-4,.88-5.55,3.7h0C80.05,100.87,79.47,100,76.65,98.5Z"/><path class="cls-6" d="M196.55,93.29h0c1.63-1.48,1.87-2.16,1.53-4.33h0c1.47,1.62,2.16,1.86,4.33,1.52h0c-1.63,1.48-1.87,2.16-1.53,4.33h0C199.4,93.18,198.72,92.94,196.55,93.29Z"/><path class="cls-6" d="M205.13,121.14h0a2.21,2.21,0,0,0,.89-2.54h0a2.18,2.18,0,0,0,2.53.9h0a2.19,2.19,0,0,0-.89,2.53h0A2.19,2.19,0,0,0,205.13,121.14Z"/><path class="cls-6" d="M98.08,75.33h0A2.19,2.19,0,0,0,96.77,73h0a2.2,2.2,0,0,0,2.34-1.32h0A2.21,2.21,0,0,0,100.42,74h0A2.19,2.19,0,0,0,98.08,75.33Z"/><path class="cls-2" d="M180.84,208.77H92.12l7.61,57.92a123.45,123.45,0,0,0,74.09-1.86Zm-69.91,27.61h-15l-.45-4h15.45a2,2,0,0,1,0,4Z"/><polygon class="cls-2" points="91.21 205.9 91.93 208.77 92.12 208.77 91.75 205.9 91.21 205.9"/></g></svg>