<svg id="Layer_1" data-name="Layer 1" xmlns="http://www.w3.org/2000/svg" viewBox="0 0 140.64 104.54"><defs><style>

#NoTilt {
    display:inline;

}

#Tilt {
    display:none;

}

svg:hover #NoTilt {    
    display:none;
}

svg:hover #Tilt {    
    display:inline;
}

.cls-1{fill:#4a4a4b;}.cls-2{fill:#30363d;}.cls-3{fill:#efa937;}.cls-4{fill:#484f59;}.cls-5{fill:#f7ce94;}</style></defs><title>light-shade</title><g id="Tilt"><path class="cls-1" d="M647.6,651.47H597.07c4.9-6.73,14.37-11.29,25.27-11.29S642.7,644.74,647.6,651.47Z" transform="translate(-510.34 -547.66)"/><polygon class="cls-1" points="119.96 100.77 117.76 99.5 133.52 50.51 135.72 51.78 119.96 100.77"/><polygon class="cls-1" points="116.1 98.06 113.9 96.79 129.28 48.38 131.48 49.65 116.1 98.06"/><polygon class="cls-2" points="130.62 42.97 101.5 26.66 102.72 24.43 131.85 40.75 130.62 42.97"/><polygon class="cls-2" points="128.45 46.91 99.32 30.59 100.55 28.37 129.67 44.68 128.45 46.91"/><path class="cls-2" d="M644.64,599.6h0a6.36,6.36,0,1,1,6.31-5.75,6.24,6.24,0,0,1-2.27,4.29A6.34,6.34,0,0,1,644.64,599.6Zm0-10.16a3.81,3.81,0,1,0,0,7.62h0a3.81,3.81,0,1,0,0-7.62Z" transform="translate(-510.34 -547.66)"/><path class="cls-2" d="M607,579.51h0a6.32,6.32,0,0,1-6.3-7,6.36,6.36,0,0,1,2.3-4.32,6.47,6.47,0,0,1,4.1-1.48,6.35,6.35,0,0,1,4,11.27A6.41,6.41,0,0,1,607,579.51Zm.1-10.2a3.9,3.9,0,0,0-3.86,3.5A3.75,3.75,0,0,0,607,577a3.9,3.9,0,0,0,3.87-3.49,3.78,3.78,0,0,0-3.77-4.16Z" transform="translate(-510.34 -547.66)"/><path class="cls-3" d="M576.67,600.57a6.78,6.78,0,0,0,2.58,9.23h0a6.77,6.77,0,0,0,9.22-2.58l6.81-12.09a6.77,6.77,0,0,0-2.58-9.22h0a6.78,6.78,0,0,0-9.23,2.58Z" transform="translate(-510.34 -547.66)"/><path class="cls-4" d="M576.38,582.51a22,22,0,0,1,15.49-7.71l4.55-8.09a7.34,7.34,0,1,1,12.79,7.19L604.66,582a22,22,0,0,1,1.43,17.25q-2.1,5.58-4.22,11.15A64.06,64.06,0,0,1,569,591.9Z" transform="translate(-510.34 -547.66)"/><path class="cls-1" d="M606,563.72l.38.19a7.33,7.33,0,0,1,2.79,10L604.66,582a22,22,0,0,1,1.43,17.25q-2.1,5.58-4.22,11.15A63.91,63.91,0,0,1,584.69,604Z" transform="translate(-510.34 -547.66)"/><path class="cls-2" d="M604.54,644.47a.64.64,0,0,0,.85.32l7.31-3.28a.64.64,0,0,0,.33-.86l-.74-1.65a.65.65,0,0,0-.86-.32L604.12,642a.65.65,0,0,0-.33.85Z" transform="translate(-510.34 -547.66)"/><path class="cls-5" d="M587.6,626.2v24.74a1.34,1.34,0,0,1-1.41,1.25h-14.1a1.34,1.34,0,0,1-1.41-1.25V626.2Z" transform="translate(-510.34 -547.66)"/><path class="cls-4" d="M580.73,626.87v23.39a1.35,1.35,0,0,1-1.42,1.26h4.39a1.27,1.27,0,0,0,1.34-1.19V626.87Z" transform="translate(-510.34 -547.66)"/><rect class="cls-5" x="583.46" y="644.4" width="2.06" height="1" transform="translate(-780.36 262.58) rotate(-58.76)"/><rect class="cls-5" x="580.74" y="648.88" width="2.06" height="1" transform="translate(-785.52 262.35) rotate(-58.76)"/><rect class="cls-5" x="584.87" y="647.47" width="1" height="2.06" transform="translate(-783.02 265.03) rotate(-58.76)"/><rect class="cls-5" x="580.39" y="644.75" width="1" height="2.06" transform="translate(-782.89 259.71) rotate(-58.75)"/><rect class="cls-5" x="551.62" y="617.95" width="2.06" height="1" transform="translate(-773.08 222.56) rotate(-58.76)"/><rect class="cls-5" x="548.9" y="622.44" width="2.06" height="1" transform="translate(-778.23 222.39) rotate(-58.76)"/><rect class="cls-5" x="553.04" y="621.02" width="1" height="2.06" transform="translate(-775.71 225.19) rotate(-58.77)"/><rect class="cls-5" x="548.55" y="618.3" width="1" height="2.06" transform="translate(-775.55 220.05) rotate(-58.77)"/><path class="cls-5" d="M573,629.36a1,1,0,0,1-.74-.11,1,1,0,0,1-.36-1.36l10.13-17.35a1,1,0,1,1,1.73,1l-10.13,17.34A1,1,0,0,1,573,629.36Z" transform="translate(-510.34 -547.66)"/><path class="cls-5" d="M547.4,605.39a1,1,0,0,1-.72-1.85l17.61-9.67a1,1,0,0,1,1,1.76l-17.62,9.66A.72.72,0,0,1,547.4,605.39Z" transform="translate(-510.34 -547.66)"/><rect class="cls-5" x="599.2" y="622.06" width="6.42" height="1" transform="translate(-543.34 663.74) rotate(-88.76)"/><rect class="cls-5" x="553.32" y="626.07" width="27.81" height="1" transform="translate(-779.02 203.81) rotate(-56.34)"/></g><g id="NoTilt"><path class="cls-1" d="M647.6,651.47H597.07c4.9-6.73,14.37-11.29,25.27-11.29S642.7,644.74,647.6,651.47Z" transform="translate(-510.34 -547.66)"/><polygon class="cls-1" points="119.96 100.77 117.76 99.5 133.52 50.51 135.72 51.78 119.96 100.77"/><polygon class="cls-1" points="116.1 98.06 113.9 96.79 129.28 48.38 131.48 49.65 116.1 98.06"/><polygon class="cls-2" points="132.4 41.39 111.26 15.55 113.22 13.93 134.36 39.77 132.4 41.39"/><polygon class="cls-2" points="128.94 44.26 107.8 18.42 109.76 16.8 130.89 42.64 128.94 44.26"/><path class="cls-2" d="M644.64,599.6h0a6.36,6.36,0,1,1,6.31-5.75,6.24,6.24,0,0,1-2.27,4.29A6.34,6.34,0,0,1,644.64,599.6Zm0-10.16a3.81,3.81,0,1,0,0,7.62h0a3.81,3.81,0,1,0,0-7.62Z" transform="translate(-510.34 -547.66)"/><path class="cls-2" d="M618.05,566.94h0a6.33,6.33,0,0,1-6.31-7,6.44,6.44,0,0,1,6.4-5.79,6.32,6.32,0,0,1,6.31,6.95,6.42,6.42,0,0,1-2.3,4.32A6.49,6.49,0,0,1,618.05,566.94Zm.09-10.2a3.94,3.94,0,0,0-2.47.89,3.87,3.87,0,0,0-1.39,2.6,3.77,3.77,0,0,0,3.77,4.15,3.88,3.88,0,0,0,3.86-3.49,3.77,3.77,0,0,0-3.77-4.15Z" transform="translate(-510.34 -547.66)"/><path class="cls-3" d="M582,573.88a6.77,6.77,0,0,0-.89,9.54h0a6.77,6.77,0,0,0,9.53.89l10.68-8.84a6.77,6.77,0,0,0,.9-9.54h0a6.78,6.78,0,0,0-9.54-.9Z" transform="translate(-510.34 -547.66)"/><path class="cls-4" d="M588.17,556.91a22.06,22.06,0,0,1,17.22-1.65l7.15-5.92a7.34,7.34,0,1,1,9.36,11.3l-7.15,5.92a22.06,22.06,0,0,1-4.84,16.62q-4,4.44-7.94,8.9a64.06,64.06,0,0,1-24-29Z" transform="translate(-510.34 -547.66)"/><path class="cls-1" d="M622.58,550c.1.1.2.2.29.31a7.33,7.33,0,0,1-1,10.33l-7.15,5.92a22.06,22.06,0,0,1-4.84,16.62q-4,4.44-7.94,8.9a64.12,64.12,0,0,1-13.74-12.17Z" transform="translate(-510.34 -547.66)"/><path class="cls-2" d="M604.54,644.47a.64.64,0,0,0,.85.32l7.31-3.28a.64.64,0,0,0,.33-.86l-.74-1.65a.65.65,0,0,0-.86-.32L604.12,642a.65.65,0,0,0-.33.85Z" transform="translate(-510.34 -547.66)"/><path class="cls-1" d="M587.6,626.2v24.74a1.34,1.34,0,0,1-1.41,1.25h-14.1a1.34,1.34,0,0,1-1.41-1.25V626.2Z" transform="translate(-510.34 -547.66)"/><path class="cls-4" d="M580.73,626.87v23.39a1.35,1.35,0,0,1-1.42,1.26h4.39a1.27,1.27,0,0,0,1.34-1.19V626.87Z" transform="translate(-510.34 -547.66)"/><rect class="cls-5" x="572.79" y="620.66" width="2.06" height="1" transform="translate(-781.5 40.09) rotate(-45)"/><rect class="cls-5" x="569.09" y="624.37" width="2.06" height="1" transform="translate(-785.21 38.5) rotate(-45)"/><rect class="cls-5" x="573.32" y="623.84" width="1" height="2.06" transform="translate(-784.12 41.15) rotate(-45)"/><rect class="cls-5" x="569.62" y="620.13" width="1" height="2.06" transform="translate(-782.58 37.27) rotate(-44.99)"/><rect class="cls-5" x="548.16" y="587.4" width="2.06" height="1" transform="translate(-765.19 12.87) rotate(-45)"/><rect class="cls-5" x="544.45" y="591.11" width="2.06" height="1" transform="translate(-768.9 11.34) rotate(-45)"/><rect class="cls-5" x="548.69" y="590.58" width="1" height="2.06" transform="translate(-767.82 14.1) rotate(-45.01)"/><rect class="cls-5" x="544.98" y="586.87" width="1" height="2.06" transform="translate(-766.28 10.39) rotate(-45.01)"/><path class="cls-5" d="M557.45,631.76a4.27,4.27,0,1,1,4.27-4.27A4.28,4.28,0,0,1,557.45,631.76Zm0-7.54a3.27,3.27,0,1,0,3.27,3.27A3.28,3.28,0,0,0,557.45,624.22Z" transform="translate(-510.34 -547.66)"/><path class="cls-5" d="M512.25,636.78a1.92,1.92,0,1,1,1.92-1.91A1.92,1.92,0,0,1,512.25,636.78Zm0-2.83a.92.92,0,1,0,.92.92A.92.92,0,0,0,512.25,634Z" transform="translate(-510.34 -547.66)"/><rect class="cls-5" x="563.93" y="576.21" width="6.42" height="1" transform="translate(-722.7 -186.89) rotate(-29.99)"/><path class="cls-5" d="M566.38,603.34a1,1,0,0,1-.72-1.69l14-14.44a1,1,0,1,1,1.43,1.39L567.1,603A1,1,0,0,1,566.38,603.34Z" transform="translate(-510.34 -547.66)"/><path class="cls-5" d="M547.19,574a1,1,0,0,1-.25-2l19.4-5.2a1,1,0,0,1,1.22.7,1,1,0,0,1-.7,1.23l-19.41,5.2A1.09,1.09,0,0,1,547.19,574Z" transform="translate(-510.34 -547.66)"/><rect class="cls-5" x="593.33" y="603.22" width="6.42" height="1" transform="translate(-651.32 476.08) rotate(-75)"/><rect class="cls-5" x="547.5" y="598.75" width="27.81" height="1" transform="translate(-767.78 -9.72) rotate(-42.59)"/></g></svg>