<svg id="Layer_1" data-name="Layer 1" xmlns="http://www.w3.org/2000/svg" viewBox="0 0 578.18 108.04"><defs><style>.cls-1{fill:#4a4a4b;}</style></defs><title>line</title><path class="cls-1" d="M1339.68,524.11c-13.61-1.3-26.56,2.35-38,10.51-23.65,16.84-46.73,34.64-71.36,49.91-27.78,17.22-59.19,25.14-91.67,27.86-8.83.75-17.9-1.7-26.83-1.49-3,.07-6,3.82-8.91,5.89,2.12,1.9,4.2,5.37,6.37,5.44,15.94.47,31.89.25,52.41.25,16.12-1.52,36.92-2.43,57.33-5.71a408.7,408.7,0,0,0,56.13-13.39c17.15-5.32,33.46-13.29,50.38-19.45,13.1-4.77,23.58-12,30.89-24.27C1365.84,543.79,1358.21,525.89,1339.68,524.11Z" transform="translate(-782.28 -523.86)"/><path class="cls-1" d="M1071.51,599.34c-8.36-.22-15.72,6-16.16,13.74-.65,11.65,5.84,18.46,17.94,18.81,7.3.21,14-5.34,14.13-11.72C1087.7,607,1082.06,599.61,1071.51,599.34Z" transform="translate(-782.28 -523.86)"/><path class="cls-1" d="M1004.1,612.39c-32.47-2.72-63.88-10.64-91.66-27.86-24.64-15.27-47.71-33.07-71.36-49.91-11.46-8.16-24.41-11.81-38-10.51-18.52,1.78-26.16,19.68-16.71,35.55,7.3,12.27,17.79,19.5,30.89,24.27,16.92,6.16,33.23,14.13,50.38,19.45a408.7,408.7,0,0,0,56.13,13.39c20.41,3.28,41.21,4.19,57.32,5.71,20.53,0,36.48.22,52.42-.25,2.17-.07,4.25-3.54,6.37-5.44-3-2.07-5.9-5.82-8.91-5.89C1022,610.69,1012.94,613.14,1004.1,612.39Z" transform="translate(-782.28 -523.86)"/></svg>