<svg id="Layer_1" data-name="Layer 1" xmlns="http://www.w3.org/2000/svg" viewBox="0 0 252.26 277.38"><defs><style>.cls-1{fill:#4a4a4b;}.cls-2{fill:#f5faf4;}.cls-3{fill:#f6ba18;}.cls-4{fill:#c59b6c;}.cls-5{fill:#5f0c0c;}.cls-6{fill:#f7ce94;}.cls-7{fill:#fff;}</style></defs><title>second-bundle</title><circle class="cls-1" cx="126.13" cy="146.04" r="123.52"/><g id="NoTilt"><g id="launch_and_publish" data-name="launch and publish"><path class="cls-2" d="M259.94,153.19a125.9,125.9,0,0,0-6.05-38.64c.17,17.69-1.23,52.32-14.28,60.16-9,5.39,0,0-3.87,2.63s-15.7,5-20.87,23.43S196.13,229.47,178,236c-4.69,1.7-10.84-.41-15,4.32-3.9-4.57-7.41-4.84-11.51-10.56-7.56-10.56-12.45-60.94-12.45-60.94h-8.5s-6.47,51.34-13.09,66.69c-3.66,8.48-6.55,5.64-10.57,5.52-4.69-5.93-14.61-.14-20.15-2.16-18.12-6.56-15.36,3.39-20.54-15S39.83,196.78,36,194.15,38,180,29,174.71C21.61,170.46,14.88,133.48,12.4,119a126.13,126.13,0,1,0,247.54,34.17Z" transform="translate(-7.68 -1.94)"/><polygon class="cls-3" points="167.42 139.62 171.26 173.61 175.04 173.61 171.73 139.86 167.42 139.62 167.42 139.62"/><polygon class="cls-3" points="86.47 139.62 82.64 173.61 78.39 173.61 81.69 139.86 86.47 139.62 86.47 139.62"/><path class="cls-4" d="M94.14,141.56l-3.61,33.21L94,169.21a25,25,0,0,1,21.15-12.07h1.41a258.38,258.38,0,0,1-6.43-27.79Z" transform="translate(-7.68 -1.94)"/><path class="cls-4" d="M175.16,141.56l-15.69-12a291.56,291.56,0,0,0,4.85-43.05c.64-17.32-4.66-36.19-9.58-48.48h0l-.08-.17-.15-.37,0,0A112.9,112.9,0,0,0,136.94,9.74L136,9.12l-.63,32h-.09L135,58.36l.75-.08a9.51,9.51,0,0,1-.28,19l-.84-.1-1.83,91.34a145.33,145.33,0,0,0,16.55-.9s1.44-3.78,3.45-10.5h1.38a25,25,0,0,1,21.14,12.07l3.43,5.56Z" transform="translate(-7.68 -1.94)"/><path class="cls-5" d="M109.49,125.23l-.17-.77s.23,1.78.76,4.88l0,0C109.88,128,109.7,126.59,109.49,125.23Z" transform="translate(-7.68 -1.94)"/><path class="cls-6" d="M133.73,9.91A105.27,105.27,0,0,0,115.4,39.56h0c-4.21,11.16-8.8,28.55-8.91,44.61a258.51,258.51,0,0,0,3,41.06c.21,1.36.39,2.8.61,4.09l0,0a258.38,258.38,0,0,0,6.43,27.79c1.89,6.24,3.26,9.68,3.26,9.68,3.29,1.23,8.21,1.66,13.07,1.72l1.83-91.34A9.48,9.48,0,0,1,135,58.36l.21-17L136,9.12Z" transform="translate(-7.68 -1.94)"/><path class="cls-3" d="M142.66,67.71a7.08,7.08,0,1,0-7.07,7.08A7.07,7.07,0,0,0,142.66,67.71Z" transform="translate(-7.68 -1.94)"/></g><path class="cls-7" d="M157.11,225.57a1.76,1.76,0,1,0-1.76,1.76A1.76,1.76,0,0,0,157.11,225.57Z" transform="translate(-7.68 -1.94)"/><path class="cls-7" d="M111.9,231.59a1.76,1.76,0,1,0-1.76,1.76A1.75,1.75,0,0,0,111.9,231.59Z" transform="translate(-7.68 -1.94)"/><path class="cls-7" d="M118.33,218.75a1.92,1.92,0,1,0-1.92,1.92A1.92,1.92,0,0,0,118.33,218.75Z" transform="translate(-7.68 -1.94)"/><path class="cls-7" d="M107.23,218.87a1.92,1.92,0,1,0-1.92,1.92A1.92,1.92,0,0,0,107.23,218.87Z" transform="translate(-7.68 -1.94)"/></g><g id="Tilt"><g id="launch_and_publish-2" data-name="launch and publish"><path class="cls-2" d="M259.94,153.19a125.9,125.9,0,0,0-6.05-38.64c.17,17.69-4.17,49.77-17.22,57.61-9,5.39-14.16-7-18-4.41s-13.79,5.2-19,23.58S196.13,229.47,178,236c-4.69,1.7-5-18-9.17-13.23-3.9-4.57-1.69-8.25-5.79-14-7.56-10.55-16.34-72-16.34-72H123.14s-10.44,77.6-17.06,93c-3.66,8.47,4.87,11.36.85,11.24-4.69-5.93-18.68-15.25-24.22-17.26-18.12-6.57-8.5,14.24-13.68-4.14S39.83,196.78,36,194.15s6-16.35-3-21.6c-7.35-4.26-18-39.07-20.52-53.53a126.13,126.13,0,1,0,247.54,34.17Z" transform="translate(-7.68 -1.94)"/><polygon class="cls-3" points="167.7 132.44 171.54 166.43 175.31 166.43 172.01 132.68 167.7 132.44 167.7 132.44"/><polygon class="cls-3" points="86.86 132.44 83.03 166.43 78.78 166.43 82.09 132.68 86.86 132.44 86.86 132.44"/><path class="cls-4" d="M94.54,134.38l-3.62,33.2L94.35,162A25,25,0,0,1,115.5,150h1.41a256.46,256.46,0,0,1-6.43-27.79Z" transform="translate(-7.68 -1.94)"/><path class="cls-4" d="M175.56,134.38l-15.7-12a291.46,291.46,0,0,0,4.86-43c.64-17.32-4.66-36.19-9.58-48.49h0l-.09-.18-.15-.36h0A113,113,0,0,0,137.34,2.56l-.93-.62-.62,32h-.09l-.26,17.21.74-.07a9.51,9.51,0,0,1-.27,19l-.84-.1-1.83,91.34a143.94,143.94,0,0,0,16.54-.91s1.45-3.78,3.46-10.49h1.37A25,25,0,0,1,175.76,162l3.43,5.55Z" transform="translate(-7.68 -1.94)"/><path class="cls-5" d="M109.89,118.05l-.17-.78s.23,1.78.76,4.89l0,0C110.28,120.85,110.1,119.4,109.89,118.05Z" transform="translate(-7.68 -1.94)"/><path class="cls-6" d="M134.13,2.73A104.88,104.88,0,0,0,115.8,32.38h0C111.58,43.54,107,60.93,106.88,77a258.7,258.7,0,0,0,3,41.06c.21,1.35.39,2.8.61,4.09l0,0A256.46,256.46,0,0,0,116.91,150c1.89,6.24,3.26,9.68,3.26,9.68,3.29,1.23,8.21,1.66,13.07,1.72L135.07,70a9.49,9.49,0,0,1,.37-18.84l.21-17,.76-32.24Z" transform="translate(-7.68 -1.94)"/><path class="cls-3" d="M143.06,60.53A7.08,7.08,0,1,0,136,67.61,7.08,7.08,0,0,0,143.06,60.53Z" transform="translate(-7.68 -1.94)"/></g><path class="cls-7" d="M190.11,193.09a1.77,1.77,0,1,0-1.76,1.77A1.76,1.76,0,0,0,190.11,193.09Z" transform="translate(-7.68 -1.94)"/><path class="cls-7" d="M91.48,200.94a1.76,1.76,0,1,0-1.76,1.76A1.76,1.76,0,0,0,91.48,200.94Z" transform="translate(-7.68 -1.94)"/><path class="cls-7" d="M95.84,185.66a1.92,1.92,0,1,0-1.92,1.92A1.92,1.92,0,0,0,95.84,185.66Z" transform="translate(-7.68 -1.94)"/><path class="cls-7" d="M82.26,195a1.92,1.92,0,1,0-1.92,1.93A1.92,1.92,0,0,0,82.26,195Z" transform="translate(-7.68 -1.94)"/></g></svg>