<svg xmlns="http://www.w3.org/2000/svg" xmlns:xlink="http://www.w3.org/1999/xlink" viewBox="0 0 860.99 1061.45"><defs><style>.cls-1{fill:url(#linear-gradient);}.cls-2{isolation:isolate;}.cls-3{fill:url(#linear-gradient-2);}.cls-4{fill:url(#linear-gradient-3);}.cls-5{opacity:0.76;}.cls-5,.cls-7{mix-blend-mode:overlay;}.cls-6,.cls-7{fill:#94ccf5;}.cls-8{fill:url(#linear-gradient-4);}.cls-9{fill:url(#linear-gradient-5);}.cls-10,.cls-13,.cls-14,.cls-15,.cls-16,.cls-17,.cls-23,.cls-45,.cls-47,.cls-48,.cls-60,.cls-67,.cls-68{mix-blend-mode:multiply;}.cls-10{fill:url(#linear-gradient-6);}.cls-11{fill:url(#linear-gradient-7);}.cls-12{fill:url(#linear-gradient-8);}.cls-13{fill:url(#linear-gradient-9);}.cls-14{fill:url(#linear-gradient-10);}.cls-15{fill:url(#linear-gradient-11);}.cls-16{fill:url(#linear-gradient-12);}.cls-17{fill:url(#linear-gradient-13);}.cls-18,.cls-28{fill:#b2ccf5;}.cls-19{fill:#e5eeff;}.cls-20,.cls-25,.cls-41{fill:#fff;}.cls-21{fill:#c9dcff;}.cls-22{fill:url(#linear-gradient-14);}.cls-23,.cls-34{fill:#d9e6fa;}.cls-23,.cls-27,.cls-28,.cls-29,.cls-34,.cls-40,.cls-41{opacity:0.75;}.cls-24{fill:#96c0d9;}.cls-25{opacity:0.83;}.cls-26,.cls-27{fill:#4a4a4b;}.cls-29{fill:#c6e4ff;}.cls-30{fill:#231f20;}.cls-31{fill:#ffe077;}.cls-32{fill:#f09600;}.cls-33{fill:#ffaa1e;}.cls-35{fill:#dfeaff;}.cls-36{fill:#a9aaaa;}.cls-37{fill:#e7efff;}.cls-38{fill:#d2e2ff;}.cls-39{fill:#e3edff;}.cls-42{fill:url(#linear-gradient-15);}.cls-43{fill:#e5e6f0;}.cls-44{mask:url(#mask);}.cls-45{fill:url(#linear-gradient-16);}.cls-46{fill:#5d89ac;}.cls-47{fill:url(#linear-gradient-17);}.cls-48{fill:url(#linear-gradient-18);}.cls-49{fill:#9fa3c8;}.cls-50{fill:#ffad32;}.cls-51{fill:#ffc95a;}.cls-52{fill:#e0c6ca;}.cls-53{fill:#c6afb4;}.cls-54{fill:#efd8dc;}.cls-55{fill:#689bec;}.cls-56{fill:url(#linear-gradient-19);}.cls-57{fill:url(#linear-gradient-20);}.cls-58{fill:url(#linear-gradient-21);}.cls-59{fill:url(#linear-gradient-22);}.cls-60{fill:url(#linear-gradient-23);}.cls-61{fill:#cedef9;}.cls-62{fill:#a0c0f3;}.cls-63{fill:#bad2ff;}.cls-64{fill:#7b9dfa;}.cls-65{fill:#c1d1fc;}.cls-66{fill:#7cacea;}.cls-67{fill:url(#linear-gradient-24);}.cls-68{fill:url(#linear-gradient-25);}</style><linearGradient id="linear-gradient" x1="1249.82" y1="614.06" x2="1196.4" y2="706.74" gradientUnits="userSpaceOnUse"><stop offset="0" stop-color="#fff"/><stop offset="0.99"/></linearGradient><linearGradient id="linear-gradient-2" x1="1024.92" y1="458.42" x2="1881.56" y2="458.42" gradientUnits="userSpaceOnUse"><stop offset="0" stop-color="#f7ce95"/><stop offset="0.55" stop-color="#f5cd96"/><stop offset="0.75" stop-color="#eeca98"/><stop offset="0.89" stop-color="#e3c49b"/><stop offset="1" stop-color="#d3bda0"/></linearGradient><linearGradient id="linear-gradient-3" x1="1502.03" y1="623.65" x2="1542.81" y2="520.83" xlink:href="#linear-gradient-2"/><linearGradient id="linear-gradient-4" x1="146.96" y1="43.71" x2="191.22" y2="87.97" gradientUnits="userSpaceOnUse"><stop offset="0" stop-color="#4a4a4b" stop-opacity="0.5"/><stop offset="1" stop-color="#4a4a4b"/></linearGradient><linearGradient id="linear-gradient-5" x1="177.94" y1="5.14" x2="177.94" y2="128.71" gradientUnits="userSpaceOnUse"><stop offset="0" stop-color="#9fd2f5"/><stop offset="1" stop-color="#4a4a4b"/></linearGradient><linearGradient id="linear-gradient-6" x1="128.29" y1="127.71" x2="151.53" y2="71.92" gradientUnits="userSpaceOnUse"><stop offset="0" stop-color="#fff"/><stop offset="1" stop-color="#a7c6f1"/></linearGradient><linearGradient id="linear-gradient-7" x1="270.49" y1="113.71" x2="354.71" y2="197.94" xlink:href="#linear-gradient-4"/><linearGradient id="linear-gradient-8" x1="329.45" y1="23.3" x2="329.45" y2="378.78" gradientUnits="userSpaceOnUse"><stop offset="0" stop-color="#4a4a4b" stop-opacity="0.4"/><stop offset="1" stop-color="#4a4a4b"/></linearGradient><linearGradient id="linear-gradient-9" x1="230.23" y1="299.85" x2="283.99" y2="170.82" xlink:href="#linear-gradient-6"/><linearGradient id="linear-gradient-10" x1="1188.34" y1="533.75" x2="1188.34" y2="417.08" xlink:href="#linear-gradient-6"/><linearGradient id="linear-gradient-11" x1="1573.75" y1="607.16" x2="1601.54" y2="558.73" xlink:href="#linear-gradient-6"/><linearGradient id="linear-gradient-12" x1="433.3" y1="621.11" x2="433.3" y2="576.25" gradientTransform="matrix(-1, 0, 0, 1, 1754.04, 0)" gradientUnits="userSpaceOnUse"><stop offset="0" stop-color="#fff"/><stop offset="1" stop-color="#4385e0"/></linearGradient><linearGradient id="linear-gradient-13" x1="466.78" y1="601.32" x2="466.78" y2="556.46" xlink:href="#linear-gradient-12"/><linearGradient id="linear-gradient-14" x1="539.63" y1="150.16" x2="652.07" y2="478.64" gradientUnits="userSpaceOnUse"><stop offset="0" stop-color="#4a4a4b"/><stop offset="1" stop-color="#4a4a4b" stop-opacity="0.3"/></linearGradient><linearGradient id="linear-gradient-15" x1="367.59" y1="76.38" x2="217.25" y2="230.51" gradientUnits="userSpaceOnUse"><stop offset="0" stop-color="#4a4a4b" stop-opacity="0.4"/><stop offset="1" stop-color="#4a4a4b"/></linearGradient><mask id="mask" x="0" y="521.25" width="416.13" height="249.13" maskUnits="userSpaceOnUse"><g transform="translate(-1020.57 -7)"><path class="cls-1" d="M1432,679.46l-263.26-150.1c-2.77-1.6-7.51-1.46-10.59.32L1020.58,604.8v14.88a3.2,3.2,0,0,0,1.92,3l266,153.59c2.77,1.6,7.51,1.46,10.59-.32l135.09-76.5c1.65-1,2.49-2.18,2.49-3.37V679.46Z"/></g></mask><linearGradient id="linear-gradient-16" x1="1301.34" y1="771.57" x2="1293.46" y2="757.93" gradientTransform="matrix(1, 0, 0, 1, 0, 0)" xlink:href="#linear-gradient-12"/><linearGradient id="linear-gradient-17" x1="199.35" y1="728.6" x2="199.35" y2="648.31" xlink:href="#linear-gradient-12"/><linearGradient id="linear-gradient-18" x1="229" y1="711.08" x2="229" y2="630.79" xlink:href="#linear-gradient-12"/><linearGradient id="linear-gradient-19" x1="730.94" y1="792.08" x2="775.5" y2="792.08" gradientUnits="userSpaceOnUse"><stop offset="0" stop-color="#67b7f0"/><stop offset="1" stop-color="#3f7cec"/></linearGradient><linearGradient id="linear-gradient-20" x1="730.94" y1="771.78" x2="775.5" y2="771.78" xlink:href="#linear-gradient-19"/><linearGradient id="linear-gradient-21" x1="730.94" y1="751.48" x2="775.5" y2="751.48" xlink:href="#linear-gradient-19"/><linearGradient id="linear-gradient-22" x1="730.94" y1="731.18" x2="775.5" y2="731.18" xlink:href="#linear-gradient-19"/><linearGradient id="linear-gradient-23" x1="1547.37" y1="837.84" x2="1547.37" y2="739.27" gradientTransform="matrix(1, 0, 0, 1, 0, 0)" xlink:href="#linear-gradient-12"/><linearGradient id="linear-gradient-24" x1="695.73" y1="876.28" x2="718" y2="840.39" gradientTransform="matrix(1, 0, 0, 1, 0, 0)" xlink:href="#linear-gradient-12"/><linearGradient id="linear-gradient-25" x1="765.62" y1="872.59" x2="750.88" y2="831.32" gradientTransform="matrix(1, 0, 0, 1, 0, 0)" xlink:href="#linear-gradient-12"/></defs><title>tools-promo</title><g class="cls-2"><g id="Layer_1" data-name="Layer 1"><path class="cls-3" d="M1401.27,735.44c-188.9-63.5-296.45-107.16-333.73-221.75C1019.59,366.29,1130.88,193,1024.92,7h856.64V909.84H1550.3C1542.31,850,1509.83,771.94,1401.27,735.44Z" transform="translate(-1020.57 -7)"/><path class="cls-4" d="M1881.56,588c-93.45,15.82-239.62-44.79-358.8-168.39C1386.32,278.13,1204.4,263,1103.33,308.45a183.13,183.13,0,0,0-42,26c-7.15,63-12,123,6.26,179.25,37.28,114.59,144.83,158.25,333.73,221.75,108.56,36.5,141,114.58,149,174.4l330.78,158.61Z" transform="translate(-1020.57 -7)"/><g class="cls-5"><path class="cls-6" d="M1730,588.75a1.29,1.29,0,0,1-.63-.17l-3.29-1.9a1.26,1.26,0,1,1,1.27-2.18l3.28,1.89a1.27,1.27,0,0,1-.63,2.36Z" transform="translate(-1020.57 -7)"/><path class="cls-6" d="M1816.35,695a1.26,1.26,0,0,1-.63-2.35l6.43-3.73a1.27,1.27,0,1,1,1.27,2.19l-6.43,3.72A1.23,1.23,0,0,1,1816.35,695Zm12.86-7.44a1.27,1.27,0,0,1-.63-2.36l6.43-3.72a1.26,1.26,0,1,1,1.27,2.18l-6.43,3.73A1.33,1.33,0,0,1,1829.21,687.55Zm12.86-7.45a1.27,1.27,0,0,1-.63-2.36l6.43-3.72a1.26,1.26,0,1,1,1.26,2.18l-6.42,3.73A1.33,1.33,0,0,1,1842.07,680.1Zm12.86-7.45a1.25,1.25,0,0,1-1.09-.63,1.26,1.26,0,0,1,.46-1.73l4.59-2.66a5,5,0,0,0,1.32-1,1.26,1.26,0,1,1,1.92,1.64,7.44,7.44,0,0,1-2,1.6l-4.59,2.66A1.23,1.23,0,0,1,1854.93,672.65Zm3.72-9.6a1.32,1.32,0,0,1-.63-.17l-6.44-3.72a1.26,1.26,0,0,1-.46-1.72,1.27,1.27,0,0,1,1.73-.47l6.43,3.72a1.27,1.27,0,0,1-.63,2.36Zm-12.87-7.44a1.22,1.22,0,0,1-.63-.17l-6.44-3.71a1.27,1.27,0,0,1,1.27-2.19l6.43,3.72a1.25,1.25,0,0,1,.46,1.72A1.23,1.23,0,0,1,1845.78,655.61Zm-12.87-7.43a1.22,1.22,0,0,1-.63-.17l-6.44-3.71a1.27,1.27,0,0,1,1.27-2.19l6.43,3.72a1.25,1.25,0,0,1,.46,1.72A1.23,1.23,0,0,1,1832.91,648.18ZM1820,640.76a1.23,1.23,0,0,1-.63-.18l-6.43-3.71a1.26,1.26,0,1,1,1.26-2.18l6.43,3.71a1.25,1.25,0,0,1,.47,1.72A1.27,1.27,0,0,1,1820,640.76Zm-12.87-7.43a1.32,1.32,0,0,1-.63-.17l-6.43-3.72a1.26,1.26,0,1,1,1.26-2.18l6.43,3.71a1.25,1.25,0,0,1,.47,1.72A1.27,1.27,0,0,1,1807.17,633.33Zm-12.87-7.43a1.32,1.32,0,0,1-.63-.17l-6.43-3.72a1.26,1.26,0,0,1,1.26-2.19l6.44,3.72a1.27,1.27,0,0,1-.64,2.36Zm-12.87-7.43a1.32,1.32,0,0,1-.63-.17l-6.43-3.72a1.26,1.26,0,0,1,1.26-2.19l6.44,3.72a1.27,1.27,0,0,1-.64,2.36ZM1768.57,611a1.33,1.33,0,0,1-.64-.17l-6.43-3.72a1.26,1.26,0,0,1,1.26-2.19l6.44,3.72a1.27,1.27,0,0,1-.63,2.36Zm-12.87-7.43a1.33,1.33,0,0,1-.64-.17l-6.43-3.72a1.26,1.26,0,0,1,1.26-2.19l6.44,3.72a1.27,1.27,0,0,1-.63,2.36Zm-12.87-7.43a1.29,1.29,0,0,1-.63-.17l-6.44-3.72a1.26,1.26,0,0,1,1.26-2.19l6.44,3.72a1.27,1.27,0,0,1-.63,2.36Z" transform="translate(-1020.57 -7)"/><path class="cls-6" d="M1806.62,700.63a1.26,1.26,0,0,1-.63-2.35l3.28-1.9a1.25,1.25,0,0,1,1.73.45,1.27,1.27,0,0,1-.46,1.73l-3.28,1.9A1.23,1.23,0,0,1,1806.62,700.63Z" transform="translate(-1020.57 -7)"/></g><path class="cls-7" d="M1353.47,138.31a1.26,1.26,0,0,1-1.26-1.26V110.52a1.27,1.27,0,0,1,2.53,0v26.53A1.26,1.26,0,0,1,1353.47,138.31Z" transform="translate(-1020.57 -7)"/><path class="cls-7" d="M1130.48,382.65a1.32,1.32,0,0,1-.63-.17l-6.56-3.81a1.26,1.26,0,0,1,1.27-2.18l6.56,3.8a1.27,1.27,0,0,1,.46,1.73A1.28,1.28,0,0,1,1130.48,382.65ZM1117.37,375a1.32,1.32,0,0,1-.63-.17l-6.56-3.81a1.26,1.26,0,1,1,1.27-2.18l6.56,3.8a1.27,1.27,0,0,1-.64,2.36Zm-13.11-7.61a1.23,1.23,0,0,1-.64-.17l-6.55-3.81a1.25,1.25,0,0,1-.46-1.72,1.27,1.27,0,0,1,1.73-.46l6.55,3.8a1.27,1.27,0,0,1-.63,2.36Zm-13.12-7.61a1.22,1.22,0,0,1-.63-.17l-3.22-1.87a1.26,1.26,0,0,1,0-2.18l3.34-1.94a1.27,1.27,0,1,1,1.27,2.19l-1.46.84,1.34.78a1.26,1.26,0,0,1-.64,2.35Zm6.68-7.61a1.26,1.26,0,0,1-.63-2.35l6.55-3.81a1.27,1.27,0,0,1,1.27,2.19l-6.56,3.8A1.19,1.19,0,0,1,1097.82,352.21Zm13.11-7.6a1.27,1.27,0,0,1-.63-2.36l6.56-3.81a1.26,1.26,0,0,1,1.26,2.19l-6.55,3.81A1.33,1.33,0,0,1,1110.93,344.61Zm13.12-7.61a1.28,1.28,0,0,1-1.1-.63,1.27,1.27,0,0,1,.46-1.73l6.56-3.8a1.26,1.26,0,1,1,1.27,2.18l-6.56,3.81A1.32,1.32,0,0,1,1124.05,337Zm13.11-7.61a1.25,1.25,0,0,1-1.09-.63,1.27,1.27,0,0,1,.45-1.73l6.56-3.8a1.26,1.26,0,1,1,1.27,2.18l-6.56,3.81A1.32,1.32,0,0,1,1137.16,329.39Zm13.11-7.61a1.25,1.25,0,0,1-1.09-.63,1.27,1.27,0,0,1,.46-1.73l6.55-3.8a1.27,1.27,0,0,1,1.27,2.19l-6.55,3.8A1.23,1.23,0,0,1,1150.27,321.78Zm13.12-7.61a1.26,1.26,0,0,1-.64-2.35l3.67-2.13a1.27,1.27,0,0,1,1.27,2.19L1164,314A1.22,1.22,0,0,1,1163.39,314.17Z" transform="translate(-1020.57 -7)"/><path class="cls-7" d="M1754,225.49a1.26,1.26,0,0,1-1.26-1.27V180a1.26,1.26,0,1,1,2.52,0v44.21A1.26,1.26,0,0,1,1754,225.49Z" transform="translate(-1020.57 -7)"/><polygon class="cls-8" points="158.86 33.61 120.81 55.66 158.86 77.72 197.01 55.66 158.86 33.61"/><polygon class="cls-9" points="158.86 77.72 158.86 144.3 197.01 122.25 197.01 55.66 158.86 77.72"/><polygon class="cls-10" points="120.81 55.66 120.81 122.25 158.86 144.3 158.86 77.72 120.81 55.66"/><path class="cls-7" d="M1291.57,142.54a1.33,1.33,0,0,1-.64-.17L1204.2,92.05a1.27,1.27,0,0,1,1.27-2.19l86.73,50.32a1.27,1.27,0,0,1-.63,2.36Z" transform="translate(-1020.57 -7)"/><polygon class="cls-11" points="293.15 94.51 220.74 136.47 293.15 178.43 365.75 136.47 293.15 94.51"/><polygon class="cls-12" points="293.15 178.43 293.15 334.99 365.75 293.02 365.75 136.47 293.15 178.43"/><polygon class="cls-13" points="220.74 136.47 220.74 293.02 293.15 334.99 293.15 178.43 220.74 136.47"/><path class="cls-14" d="M1234.62,526.66c0-1.69-.08-3.42-.23-5.16l-8.1-7a1.55,1.55,0,0,1-.42-.72l-1-4.83a.76.76,0,0,1,0-.3l-3.35,1.93,9.49-5.47a95.32,95.32,0,0,0-4.36-11.23l-8.05-2a1.15,1.15,0,0,1-.57-.5l-2.6-4.51a1.09,1.09,0,0,1-.14-.74l2.29-8a95.34,95.34,0,0,0-7.53-9.4l-6.12,3.53a.69.69,0,0,1-.29-.16l-3.75-3.33a1.58,1.58,0,0,1-.41-.72l-2-10.54c-1.43-1-2.89-1.92-4.36-2.77s-2.92-1.6-4.35-2.25l-8.06,4.65-4.56-8a23.75,23.75,0,0,0-7.53.7l-9.49,5.48s-9.06,5.26-9.06,5.26a23.57,23.57,0,0,0-4.37,6.18l4.65,7.92-8,4.62c-.15,1.57-.23,3.2-.23,4.9s.08,3.42.23,5.16l8.1,7a1.6,1.6,0,0,1,.42.72l1,4.84a.55.55,0,0,1-.15.56l-6,3.28A94.5,94.5,0,0,0,1150,517l8,2a1.21,1.21,0,0,1,.57.5l2.6,4.52a1.08,1.08,0,0,1,.14.74l-2.29,8a96.53,96.53,0,0,0,7.53,9.4l5.84-3.53a.56.56,0,0,1,.57.15l3.75,3.34a1.5,1.5,0,0,1,.41.71l2,10.54c1.43,1,2.89,1.93,4.36,2.78s2.92,1.6,4.35,2.25l8.06-4.66,4.56,8a23.44,23.44,0,0,0,7.53-.71l9.49-5.47s9.07-5.26,9.07-5.26a23.71,23.71,0,0,0,4.36-6.18l-6,3.44,6-3.44-4.65-7.92,8-4.63C1234.54,530,1234.62,528.36,1234.62,526.66Zm-42.15,3.83c-13.13-7.58-23.77-26-23.77-41.17,0-4.94,1.13-8.91,3.11-11.78,3.48-.29,7.49.7,11.79,3.18,13.12,7.58,23.77,26,23.77,41.16,0,5-1.16,8.93-3.15,11.8C1200.75,534,1196.74,533,1192.47,530.49Z" transform="translate(-1020.57 -7)"/><path class="cls-15" d="M1737.51,555a11.5,11.5,0,0,0-1.49-1l-148.94-86.55c-5.51-3.21-14.56-3.21-20.1,0l-80.22,46.32c-.51.29-4.18,1.41-4.18,1.41v12.3c-.08,2.16,1.29,4.34,4.11,6l67.47,39.2v34.18L1668,672.5v-4.29l8.55-5V607.91L1736,573.62c2.79-1.61,4.18-5.78,4.18-7.9V555Z" transform="translate(-1020.57 -7)"/><path class="cls-16" d="M1328.42,596.23a4.62,4.62,0,0,1,2.15,1.11,2.36,2.36,0,0,1,.22,2.37c-1.48,3.68-12.94,10.81-12.83,11.89l1.09,18-7.61.43-.22-20.11-.72-3.94a1.17,1.17,0,0,1,.73-1.37Z" transform="translate(-1020.57 -7)"/><path class="cls-17" d="M1294.94,576.44a4.63,4.63,0,0,1,2.16,1.1,2.39,2.39,0,0,1,.21,2.37c-1.48,3.69-12.93,10.81-12.83,11.9l1.09,18-7.61.44-.22-20.11-.72-4a1.17,1.17,0,0,1,.73-1.36Z" transform="translate(-1020.57 -7)"/><path class="cls-18" d="M1740.13,555.26h-2.62a11.47,11.47,0,0,0-1.49-1l-148.94-86.56c-5.51-3.2-14.56-3.2-20.1,0L1486.76,514c-.51.29-4.18,1.42-4.18,1.42v7.8c-.08,2.16,1.29,4.34,4.11,6l148.94,86.56c5.51,3.2,14.56,3.2,20.1,0L1736,569.41c2.79-1.61,4.18-5.78,4.18-7.9v-6.25Z" transform="translate(-1020.57 -7)"/><path class="cls-19" d="M1486.76,509.5,1567,463.19c5.54-3.2,14.59-3.2,20.1,0L1736,549.75c5.51,3.2,5.48,8.43-.07,11.64l-80.22,46.31c-5.54,3.2-14.59,3.2-20.1,0l-148.94-86.55C1481.18,518,1481.21,512.7,1486.76,509.5Z" transform="translate(-1020.57 -7)"/><polygon class="cls-20" points="647.45 498.22 647.45 564.85 656 559.89 656 493.26 647.45 498.22"/><polygon class="cls-18" points="533.59 432.49 533.59 499.12 647.45 564.85 647.45 498.22 533.59 432.49"/><path class="cls-20" d="M1801.23,248.32,1457,49.56c-3.25-1.87-6.19-2.09-8.36-.94l-.38.21L1434.16,57l16.39,10.91V352.19c0,7.73,5.43,17.12,12.11,21l331.95,211.62s15.17-8.7,15.25-8.76c2.15-1.28,3.48-7.79,3.48-7.79V269.3C1813.34,261.58,1807.92,252.19,1801.23,248.32Z" transform="translate(-1020.57 -7)"/><path class="cls-21" d="M1429.91,65.14V364.08c0,7.72,5.42,17.11,12.11,21l344.27,198.77c6.69,3.86,12.11.73,12.11-7V277.89c0-7.73-5.42-17.12-12.11-21L1442,58.14C1435.33,54.28,1429.91,57.41,1429.91,65.14Z" transform="translate(-1020.57 -7)"/><polygon class="cls-22" points="438.68 335.3 748.49 514.17 748.49 280.25 438.68 101.38 438.68 335.3"/><polygon class="cls-23" points="409.33 137.83 409.33 151.2 690.8 313.71 690.8 533.57 701.7 539.86 701.7 306.63 409.33 137.83"/><polygon class="cls-24" points="783.35 321.24 787.48 318.85 787.48 489.85 783.35 492.23 783.35 321.24"/><polygon class="cls-25" points="381 368.76 690.8 547.63 690.8 313.71 381 134.84 381 368.76"/><polygon class="cls-26" points="381 158.37 690.8 337.24 690.8 313.71 381 134.84 381 158.37"/><polygon class="cls-20" points="625.97 285.18 450.17 183.68 450.17 190.34 625.97 291.84 625.97 285.18"/><polygon class="cls-27" points="599.47 407.02 588.46 400.66 588.46 404.22 599.47 410.57 599.47 407.02"/><polygon class="cls-28" points="623.16 420.69 623.16 424.25 638.22 432.94 638.22 429.39 623.16 420.69"/><polygon class="cls-28" points="620.63 419.24 602 408.48 602 412.03 620.63 422.79 620.63 419.24"/><polygon class="cls-28" points="614.95 424.48 588.46 409.19 588.46 412.74 614.95 428.04 614.95 424.48"/><polygon class="cls-28" points="617.47 425.94 617.47 429.5 638.22 441.47 638.22 437.91 617.47 425.94"/><polygon class="cls-28" points="605.47 427.54 588.46 417.72 588.46 421.27 605.47 431.09 605.47 427.54"/><polygon class="cls-28" points="623.16 437.75 608 429 608 432.55 623.16 441.31 623.16 437.75"/><polygon class="cls-28" points="625.69 439.21 625.69 442.76 638.22 450 638.22 446.44 625.69 439.21"/><polygon class="cls-28" points="611.47 439.53 588.46 426.24 588.46 429.8 611.47 443.09 611.47 439.53"/><polygon class="cls-27" points="579.46 298.47 529.92 269.87 529.92 307.63 579.46 336.23 579.46 298.47"/><path class="cls-19" d="M1414.29,156.27c-2.41-1.39-4.37-.26-4.37,2.52a9.64,9.64,0,0,0,4.37,7.55c2.41,1.39,4.36.27,4.36-2.51A9.63,9.63,0,0,0,1414.29,156.27Z" transform="translate(-1020.57 -7)"/><path class="cls-19" d="M1429.6,165.08c-2.41-1.4-4.36-.27-4.36,2.51a9.63,9.63,0,0,0,4.36,7.56c2.41,1.39,4.36.26,4.36-2.52A9.63,9.63,0,0,0,1429.6,165.08Z" transform="translate(-1020.57 -7)"/><path class="cls-19" d="M1444.92,173.88c-2.41-1.39-4.37-.26-4.37,2.52a9.67,9.67,0,0,0,4.37,7.56c2.41,1.39,4.36.26,4.36-2.52A9.65,9.65,0,0,0,1444.92,173.88Z" transform="translate(-1020.57 -7)"/><polygon class="cls-28" points="671.48 349.3 588.46 301.37 588.46 376.9 671.48 424.84 671.48 349.3"/><polygon class="cls-29" points="381 368.76 426.39 394.97 426.39 308.96 381 282.76 381 368.76"/><polygon class="cls-25" points="518.88 261.57 404.42 195.48 404.42 403.4 518.88 469.48 518.88 261.57"/><polygon class="cls-25" points="463.76 288 349.3 221.91 349.3 429.83 463.76 495.91 463.76 288"/><polygon class="cls-25" points="277.31 247.79 131.68 163.71 131.68 278.01 277.31 362.09 277.31 247.79"/><path class="cls-7" d="M1306.43,416.5a1.32,1.32,0,0,1-.63-.17l-1.35-.78a1.26,1.26,0,0,1,1.26-2.19l1.35.78a1.25,1.25,0,0,1,.47,1.72A1.27,1.27,0,0,1,1306.43,416.5Zm-7.91-4.57a1.29,1.29,0,0,1-.63-.17l-6.57-3.79a1.27,1.27,0,0,1,1.27-2.19l6.56,3.79a1.27,1.27,0,0,1-.63,2.36Zm-13.13-7.58a1.32,1.32,0,0,1-.63-.17l-6.57-3.79a1.27,1.27,0,1,1,1.27-2.19L1286,402a1.27,1.27,0,0,1-.63,2.36Zm-13.13-7.58a1.32,1.32,0,0,1-.63-.17l-1.11-.64a1.28,1.28,0,0,1-.63-1.1v-6.3a1.26,1.26,0,0,1,2.52,0v5.57l.48.28a1.26,1.26,0,0,1-.63,2.36Zm-1.11-14.52a1.26,1.26,0,0,1-1.26-1.27V373.4a1.26,1.26,0,0,1,2.52,0V381A1.26,1.26,0,0,1,1271.15,382.25Zm0-15.16a1.26,1.26,0,0,1-1.26-1.27v-7.58a1.26,1.26,0,0,1,2.52,0v7.58A1.26,1.26,0,0,1,1271.15,367.09Z" transform="translate(-1020.57 -7)"/><polygon class="cls-20" points="268.05 276.6 197.06 235.75 192.91 238.23 263.76 279.08 268.05 276.6"/><polygon class="cls-21" points="263.76 279.08 263.76 289.84 268.05 287.36 268.05 276.6 263.76 279.08"/><polygon class="cls-26" points="192.91 238.23 192.91 248.99 263.76 289.84 263.76 279.08 192.91 238.23"/><polygon class="cls-20" points="246.82 283.97 197.06 255.21 192.91 257.69 242.54 286.45 246.82 283.97"/><polygon class="cls-21" points="242.54 286.45 242.54 294.23 246.82 291.76 246.82 283.97 242.54 286.45"/><polygon class="cls-21" points="192.91 257.69 192.91 265.47 242.54 294.23 242.54 286.45 192.91 257.69"/><polygon class="cls-20" points="246.82 303.43 197.06 274.67 192.91 277.14 242.54 305.9 246.82 303.43"/><polygon class="cls-21" points="242.54 305.9 242.54 313.69 246.82 311.21 246.82 303.43 242.54 305.9"/><polygon class="cls-21" points="192.91 277.14 192.91 284.92 242.54 313.69 242.54 305.9 192.91 277.14"/><polygon class="cls-30" points="381.31 135.39 380.68 134.3 386.14 131.13 386.78 132.22 381.31 135.39"/><polygon class="cls-30" points="399.67 124.74 399.04 123.64 411.93 116.16 412.56 117.26 399.67 124.74"/><polygon class="cls-30" points="425.46 109.77 424.83 108.68 430.29 105.51 430.92 106.61 425.46 109.77"/><rect class="cls-30" x="1151.82" y="168.49" width="6.32" height="1.26" transform="translate(-949.47 595.47) rotate(-30.12)"/><rect class="cls-30" x="1169.6" y="155.69" width="14.91" height="1.26" transform="translate(-940.06 604.82) rotate(-30.12)"/><rect class="cls-30" x="1195.97" y="142.88" width="6.32" height="1.26" transform="translate(-930.74 613.98) rotate(-30.11)"/><polygon class="cls-30" points="291.93 255.93 291.3 254.83 296.77 251.66 297.4 252.75 291.93 255.93"/><path class="cls-30" d="M1327.32,254.33l-.63-1.09,9.35-5.43.63,1.1Zm18.7-10.85-.63-1.09,9.35-5.43.63,1.1Z" transform="translate(-1020.57 -7)"/><polygon class="cls-30" points="344.15 225.63 343.52 224.54 348.98 221.37 349.61 222.46 344.15 225.63"/><polygon class="cls-30" points="406.39 322.01 405.76 320.91 411.23 317.75 411.86 318.84 406.39 322.01"/><path class="cls-30" d="M1441.78,320.41l-.63-1.09,9.35-5.42.63,1.09Zm18.7-10.85-.63-1.09,9.35-5.42.63,1.09Z" transform="translate(-1020.57 -7)"/><polygon class="cls-30" points="458.61 291.71 457.97 290.62 463.44 287.45 464.07 288.54 458.61 291.71"/><polygon class="cls-30" points="406.39 529.92 405.76 528.83 411.23 525.66 411.86 526.75 406.39 529.92"/><path class="cls-30" d="M1441.78,528.33l-.63-1.1,9.35-5.42.63,1.09Zm18.7-10.85-.63-1.1,9.35-5.42.63,1.09Z" transform="translate(-1020.57 -7)"/><polygon class="cls-30" points="458.61 499.63 457.98 498.53 463.44 495.36 464.07 496.46 458.61 499.63"/><polygon class="cls-20" points="297.51 459.82 296.88 458.73 302.34 455.56 302.97 456.65 297.51 459.82"/><path class="cls-20" d="M1332.89,458.23l-.63-1.09,9.35-5.43.63,1.09Zm18.71-10.85-.64-1.09,9.35-5.43.64,1.1Z" transform="translate(-1020.57 -7)"/><polygon class="cls-20" points="349.73 429.53 349.09 428.44 354.55 425.27 355.19 426.36 349.73 429.53"/><polygon class="cls-30" points="691.13 314.26 690.49 313.17 695.95 309.99 696.59 311.09 691.13 314.26"/><polygon class="cls-30" points="709.77 303.44 709.14 302.35 722.32 294.7 722.95 295.79 709.77 303.44"/><polygon class="cls-30" points="736.14 288.14 735.5 287.05 740.97 283.88 741.6 284.97 736.14 288.14"/><polygon class="cls-20" points="406.08 321.46 291.62 255.38 291.62 463.29 406.08 529.38 406.08 321.46"/><path class="cls-31" d="M1388.71,396.18a5.5,5.5,0,0,0-2.11-2.54l-52.46-30.29a1.92,1.92,0,0,0-1.8-.22l-1.82,1.05V376.8c.31,0,36.56,36.77,36.56,36.77h18.83V397.8Z" transform="translate(-1020.57 -7)"/><polygon class="cls-32" points="310.88 370.94 310.81 369.7 308.99 370.75 308.99 397.64 310.81 396.59 316.29 390.93 310.88 370.94"/><path class="cls-31" d="M1388.71,396.18l-2.8,1.62v15.77h.59v14.28l1.71-1a1.74,1.74,0,0,0,1-1.77V398.2A5.19,5.19,0,0,0,1388.71,396.18Z" transform="translate(-1020.57 -7)"/><path class="cls-33" d="M1384.78,394.7l-52.46-30.29c-1.46-.84-2.64-.17-2.65,1.51l-.11,38.72,5.49-5.65,49.63,28.66c1.46.84,2.66.17,2.67-1.51V399.25A5.76,5.76,0,0,0,1384.78,394.7Z" transform="translate(-1020.57 -7)"/><polygon class="cls-34" points="381 240.22 463.76 288 463.76 416.55 475.84 423.52 475.84 279.69 381 224.93 381 240.22"/><polygon class="cls-27" points="539.06 322.44 528.05 316.08 528.05 319.64 539.06 326 539.06 322.44"/><polygon class="cls-28" points="562.75 336.12 562.75 339.67 577.8 348.37 577.8 344.81 562.75 336.12"/><polygon class="cls-28" points="560.22 334.66 541.59 323.9 541.59 327.46 560.22 338.21 560.22 334.66"/><polygon class="cls-28" points="554.54 339.9 528.05 324.61 528.05 328.17 554.54 343.46 554.54 339.9"/><polygon class="cls-28" points="557.06 341.36 557.06 344.92 577.8 356.89 577.8 353.34 557.06 341.36"/><polygon class="cls-28" points="545.06 342.96 528.05 333.14 528.05 336.69 545.06 346.52 545.06 342.96"/><polygon class="cls-28" points="562.75 353.17 547.59 344.42 547.59 347.98 562.75 356.73 562.75 353.17"/><polygon class="cls-28" points="565.27 354.63 565.27 358.19 577.8 365.42 577.8 361.87 565.27 354.63"/><polygon class="cls-28" points="551.06 354.95 528.05 341.67 528.05 345.22 551.06 358.51 551.06 354.95"/><polygon class="cls-27" points="429.15 225.16 418.13 218.8 418.13 222.36 429.15 228.72 429.15 225.16"/><polygon class="cls-28" points="452.83 238.84 452.83 242.39 467.89 251.09 467.89 247.53 452.83 238.84"/><polygon class="cls-28" points="450.31 237.38 431.67 226.62 431.67 230.18 450.31 240.94 450.31 237.38"/><polygon class="cls-28" points="444.62 242.63 418.13 227.33 418.13 230.89 444.62 246.18 444.62 242.63"/><polygon class="cls-28" points="447.15 244.08 447.15 247.64 467.89 259.61 467.89 256.06 447.15 244.08"/><polygon class="cls-28" points="435.15 245.68 418.13 235.86 418.13 239.42 435.15 249.24 435.15 245.68"/><polygon class="cls-28" points="452.83 255.89 437.67 247.14 437.67 250.7 452.83 259.45 452.83 255.89"/><polygon class="cls-27" points="353.35 457.62 342.33 451.26 342.33 454.82 353.35 461.18 353.35 457.62"/><polygon class="cls-28" points="377.03 471.3 377.03 474.85 392.09 483.55 392.09 479.99 377.03 471.3"/><polygon class="cls-28" points="374.51 469.84 355.87 459.08 355.87 462.64 374.51 473.39 374.51 469.84"/><polygon class="cls-28" points="368.82 475.08 342.33 459.79 342.33 463.35 368.82 478.64 368.82 475.08"/><polygon class="cls-28" points="371.35 476.54 371.35 480.1 392.09 492.07 392.09 488.52 371.35 476.54"/><polygon class="cls-28" points="359.35 478.14 342.33 468.32 342.33 471.88 359.35 481.7 359.35 478.14"/><polygon class="cls-28" points="377.03 488.35 361.87 479.6 361.87 483.16 377.03 491.91 377.03 488.35"/><path class="cls-35" d="M1220.67,444.93l4.38,7.45,6-3.45a23.77,23.77,0,0,1-4.36,6.19l-9.49,5.47-6-10.19Z" transform="translate(-1020.57 -7)"/><path class="cls-35" d="M1221.53,415.37l3.35-1.93a.76.76,0,0,0,0,.3l1,4.83a1.6,1.6,0,0,0,.42.72l-9.49,5.47c-1.1,0-3.71-2.22-3.71-2.77,0-1.63-.49-3,2.46-3.34Z" transform="translate(-1020.57 -7)"/><path class="cls-35" d="M1217.59,383l-2.29,7.95a1.09,1.09,0,0,0,.14.74l2.6,4.52a1.21,1.21,0,0,0,.57.5l-9.48,5.48c-.61.37-2.55,1.24-2.83.72-.49-.9-1-1.79-1.55-2.67-.31-.5.37-3.42,1-3.8l9.5-5.49Z" transform="translate(-1020.57 -7)"/><polygon class="cls-20" points="127.56 387.38 137.05 381.9 131.21 371.63 121.72 377.11 127.56 387.38"/><polygon class="cls-20" points="167.38 456.2 176.86 450.72 171.03 440.45 161.54 445.93 167.38 456.2"/><polygon class="cls-20" points="187.53 458.85 197.02 453.37 191.18 443.1 181.69 448.58 187.53 458.85"/><polygon class="cls-20" points="200.96 447.41 210.45 441.93 204.46 431.74 194.97 437.22 200.96 447.41"/><polygon class="cls-35" points="189.16 430.78 198.64 425.3 204.46 431.74 194.97 437.22 189.16 430.78"/><polygon class="cls-20" points="204.33 424.81 213.82 419.33 205.72 412.29 196.23 417.76 204.33 424.81"/><path class="cls-35" d="M1224.9,431.81l9.49-5.48c.15,1.74.23,3.46.23,5.16s-.08,3.33-.23,4.9l-9.49,5.47-3.41-5.86S1225,432.52,1224.9,431.81Z" transform="translate(-1020.57 -7)"/><polygon class="cls-20" points="196.6 397.15 206.08 391.67 198.04 389.66 188.56 395.14 196.6 397.15"/><path class="cls-36" d="M1208.1,388.42l9.49-5.47Z" transform="translate(-1020.57 -7)"/><path class="cls-36" d="M1208.1,388.42l-7.53-9.4A95.05,95.05,0,0,1,1208.1,388.42Z" transform="translate(-1020.57 -7)"/><path class="cls-20" d="M1203.94,377.08l6.12-3.54a95.48,95.48,0,0,1,7.53,9.41l-9.49,5.47a95.05,95.05,0,0,0-7.53-9.4Z" transform="translate(-1020.57 -7)"/><polygon class="cls-35" points="151.89 362.69 161.38 357.21 155.54 346.94 146.05 352.42 151.89 362.69"/><polygon class="cls-20" points="135.29 368.65 144.78 363.17 138.94 352.91 129.45 358.38 135.29 368.65"/><polygon class="cls-35" points="169.43 371.34 178.92 365.87 176.86 355.33 167.38 360.81 169.43 371.34"/><polygon class="cls-37" points="185.24 389.38 194.72 383.9 197.02 375.95 187.53 381.42 185.24 389.38"/><path class="cls-20" d="M1163.09,415c-.17-.44-.34-.88-.5-1.31,0-.11-.07-.22-.11-.33-.15-.42-.3-.84-.43-1.26,0-.11-.08-.23-.11-.34q-.21-.63-.39-1.26l-.09-.33c-.12-.43-.24-.85-.35-1.28a2.46,2.46,0,0,0-.07-.29c-.11-.45-.21-.9-.31-1.35a1.74,1.74,0,0,0,0-.22c-.1-.48-.19-1-.27-1.43l0-.14c-.08-.52-.16-1-.23-1.56a35.18,35.18,0,0,1-.32-4.65,24.5,24.5,0,0,1,1.14-7.74c.16-.47.3-.87.46-1.25s.34-.77.53-1.13.37-.69.54-1l.12-.19c.2-.31.4-.61.61-.9s.43-.54.65-.79l.2-.21c.18-.2.37-.39.56-.57l.16-.16a11.76,11.76,0,0,1,7-3c-2,2.87-3.12,6.85-3.12,11.8,0,15.15,10.64,33.59,23.76,41.16,4.29,2.48,8.31,3.48,11.78,3.19a11.84,11.84,0,0,1-10.93,5.14c-.41,0-.77-.06-1.12-.1s-.69-.1-1-.17l-.2,0-.94-.21-.33-.09-.87-.25-.44-.15-.63-.23-.72-.28-.21-.08a28.42,28.42,0,0,1-3.22-1.61,36.65,36.65,0,0,1-5.18-3.65c-.46-.38-.84-.71-1.21-1l-.14-.13-1-1-.2-.19-.95-.95-.23-.24c-.3-.31-.59-.63-.88-.95l-.27-.29c-.28-.31-.55-.63-.83-1l-.27-.31c-.28-.33-.55-.68-.83-1l-.22-.28c-.35-.44-.68-.88-1-1.33a58.78,58.78,0,0,1-6.51-11.3c-.22-.52-.44-1-.64-1.55A2.6,2.6,0,0,1,1163.09,415Z" transform="translate(-1020.57 -7)"/><path class="cls-35" d="M1217.17,404.15l9.49-5.48a95.86,95.86,0,0,1,4.36,11.22l-9.49,5.48-2.14-3.31.84-.49C1219.32,409.08,1218.3,406.59,1217.17,404.15Z" transform="translate(-1020.57 -7)"/><path class="cls-21" d="M1216.38,439.79a.34.34,0,0,1,.42-.24l8.1,2.31c.15-1.56.23-3.19.23-4.89s-.08-3.42-.23-5.16l-8.1-7.05a1.55,1.55,0,0,1-.42-.72l-1-4.83a.53.53,0,0,1,.16-.56l6-3.28a92.82,92.82,0,0,0-4.36-11.22l-8-2a1.14,1.14,0,0,1-.57-.51l-2.6-4.51a1.1,1.1,0,0,1-.15-.74l2.29-8a95.05,95.05,0,0,0-7.53-9.4l-5.84,3.52a.55.55,0,0,1-.57-.14l-3.74-3.34a1.47,1.47,0,0,1-.42-.72l-2-10.53q-2.15-1.5-4.35-2.78c-1.47-.85-2.93-1.6-4.36-2.25l-2,8.16a.33.33,0,0,1-.41.25l-3.75-1a1.19,1.19,0,0,1-.57-.51l-5.84-10.27a23.46,23.46,0,0,0-7.53.71l2.29,10.6a.54.54,0,0,1-.14.57l-2.6,1.51a.56.56,0,0,1-.57-.15l-8-7.28a23.8,23.8,0,0,0-4.37,6.19l6,10.19a1.17,1.17,0,0,1,.15.74l-1,3.68a.34.34,0,0,1-.42.24l-8.1-2.31c-.15,1.57-.23,3.2-.23,4.9s.08,3.42.23,5.16l8.1,7a1.55,1.55,0,0,1,.42.72l1,4.83a.57.57,0,0,1-.15.57l-6,3.28a97.66,97.66,0,0,0,4.36,11.22l8,2a1.21,1.21,0,0,1,.57.5l2.6,4.51a1.1,1.1,0,0,1,.14.74l-2.29,8a94.19,94.19,0,0,0,7.53,9.4l5.84-3.52a.56.56,0,0,1,.57.15l3.75,3.33a1.49,1.49,0,0,1,.41.72l2,10.54c1.43,1,2.89,1.93,4.36,2.78s2.92,1.59,4.35,2.25l2-8.17a.35.35,0,0,1,.42-.25l3.74,1a1.16,1.16,0,0,1,.57.5l5.84,10.28a23.44,23.44,0,0,0,7.53-.71l-2.29-10.61c0-.23,0-.5.15-.57l2.6-1.51c.13-.08.39,0,.57.16l8,7.27a23.32,23.32,0,0,0,4.36-6.18l-6-10.19a1.12,1.12,0,0,1-.16-.74Zm-32.78.64c-13.13-7.58-23.77-26-23.77-41.16s10.64-21.31,23.77-13.73,23.77,26,23.77,41.17S1196.72,448,1183.6,440.43Z" transform="translate(-1020.57 -7)"/><path class="cls-20" d="M1194.16,382.4l-3.74-3.34a1.47,1.47,0,0,1-.42-.72l9.49-5.47-2-10.54,2,10.54a1.58,1.58,0,0,0,.41.72l3.75,3.33a.69.69,0,0,0,.29.16l-3.37,1.94-5.84,3.52A.55.55,0,0,1,1194.16,382.4Z" transform="translate(-1020.57 -7)"/><path class="cls-20" d="M1179.24,362.78l9.49-5.48c1.43.66,2.88,1.4,4.35,2.25s2.93,1.78,4.36,2.78l-9.49,5.48c-.35-.25-.7-.49-1.06-.72-1.08-.73-2.18-1.42-3.29-2.06C1182.13,364.18,1180.67,363.43,1179.24,362.78Z" transform="translate(-1020.57 -7)"/><path class="cls-20" d="M1177.19,370.94a.33.33,0,0,1-.41.25l-3.75-1a1.19,1.19,0,0,1-.57-.51l5.9-3.41Z" transform="translate(-1020.57 -7)"/><path class="cls-20" d="M1170.14,357.39l-3.52,2a23.46,23.46,0,0,0-7.53.71l9.49-5.48a23.46,23.46,0,0,1,7.53-.71Z" transform="translate(-1020.57 -7)"/><path class="cls-38" d="M1389.85,338.31l-.12,43.23-2.4,1.45.12-43.23a6.55,6.55,0,0,0-1.07-3.35l2.43-1.4A6.52,6.52,0,0,1,1389.85,338.31Z" transform="translate(-1020.57 -7)"/><path class="cls-39" d="M1334,303.53a2.16,2.16,0,0,1,2.32.17l50.43,29.18a6.3,6.3,0,0,1,2.1,2.13l-2.43,1.4c-.55-.87-54.79-31.51-54.79-31.51Z" transform="translate(-1020.57 -7)"/><g class="cls-40"><path class="cls-26" d="M1333.77,305.14l50.54,29.18a6.92,6.92,0,0,1,3.14,5.44l-.12,43.23-6.5-11.26-47.17-27.24a6.91,6.91,0,0,1-3.14-5.43l.09-32.12C1330.62,305,1332,304.14,1333.77,305.14Z" transform="translate(-1020.57 -7)"/></g><polygon class="cls-41" points="341.03 325.64 314.54 310.35 314.54 312.53 341.03 327.83 341.03 325.64"/><polygon class="cls-41" points="343.55 327.1 343.55 329.29 361.39 339.58 361.39 337.39 343.55 327.1"/><polygon class="cls-41" points="331.55 325.49 314.54 315.67 314.54 317.87 331.55 327.69 331.55 325.49"/><polygon class="cls-41" points="352.13 337.37 338.68 329.61 335.12 327.55 335.12 329.75 352.13 339.57 352.13 337.37"/><polygon class="cls-41" points="327.75 328.38 314.54 320.75 314.54 322.95 327.75 330.58 327.75 328.38"/><polygon class="cls-41" points="323.11 371.19 314.54 366.24 314.54 368.75 323.11 373.7 323.11 371.19"/><polygon class="cls-41" points="325.64 372.65 325.64 375.16 341.03 384.05 341.03 381.53 325.64 372.65"/><polygon class="cls-41" points="341.03 381.53 341.03 384.05 361.39 395.8 361.39 393.29 341.03 381.53"/><polygon class="cls-41" points="335.12 384.23 314.54 372.35 314.54 374.79 335.12 386.66 335.12 384.23"/><polygon class="cls-41" points="352.13 394.05 338.68 386.28 335.12 384.23 335.12 386.66 352.13 396.49 352.13 394.05"/><polygon class="cls-41" points="322.95 382.89 314.54 378.03 314.54 380.42 322.95 385.28 322.95 382.89"/><polygon class="cls-42" points="293.15 94.51 293.15 178.43 365.75 136.47 293.15 94.51"/><path class="cls-7" d="M1139.65,423.27a1.28,1.28,0,0,1-1.16-.76c-6-13.77-9.24-27.66-9.24-40.17,0-21,9.13-35.45,24.41-38.56a1.27,1.27,0,0,1,.51,2.48c-14,2.84-22.4,16.33-22.4,36.08,0,12.16,3.13,25.7,9,39.15a1.27,1.27,0,0,1-.65,1.67A1.25,1.25,0,0,1,1139.65,423.27Z" transform="translate(-1020.57 -7)"/><polygon class="cls-20" points="396.56 461.1 346.8 432.34 342.65 434.82 392.28 463.58 396.56 461.1"/><polygon class="cls-21" points="392.28 463.58 392.28 471.36 396.56 468.88 396.56 461.1 392.28 463.58"/><polygon class="cls-26" points="342.65 434.81 342.65 442.6 392.28 471.36 392.28 463.58 342.65 434.81"/><path class="cls-43" d="M1279.08,573.77a4.37,4.37,0,0,0,3.63.91c2.37-.34,10.3-3.29,10.3-3.29s3,.23,3.51,2.15.22,4.08-2.15,6.34a16.39,16.39,0,0,1-6.8,4.08,15.11,15.11,0,0,0-5.43,2.94,6.71,6.71,0,0,1-3.87,1.18,4.63,4.63,0,0,1-3.91-3.66c-.33-2.15,1.8-12.31,1.8-12.31Z" transform="translate(-1020.57 -7)"/><path class="cls-43" d="M1312.77,592.72a4.37,4.37,0,0,0,3.63.91c2.37-.34,10.3-3.29,10.3-3.29s3,.23,3.51,2.15.22,4.08-2.15,6.34a16.39,16.39,0,0,1-6.8,4.08,15.11,15.11,0,0,0-5.43,2.94A6.72,6.72,0,0,1,1312,607a4.63,4.63,0,0,1-3.9-3.66c-.33-2.15,1.8-12.31,1.8-12.31Z" transform="translate(-1020.57 -7)"/><path class="cls-20" d="M1401.35,101.94c0-10-7-22.28-15.78-27.32l-5.23-3.15c-.21-10.63-7.64-23.35-16.82-28.65-4.3-2.48-8.22-2.87-11.21-1.55,0,0-.34.15-.34.15-.25.12-11.25,6.5-11.25,6.5l0,2.14a8.87,8.87,0,0,0-4.59.56c-.54.25-11.59,6.69-11.59,6.69l.09,11.52s14,14.86,21.43,19.38c.09.08,4.5,2.64,10.33,6l28.78,16.57.06,7.94,11.59-6.69C1399.61,110.32,1401.33,106.86,1401.35,101.94Z" transform="translate(-1020.57 -7)"/><g class="cls-2"><path class="cls-21" d="M1352.48,49.25c-9.17-5.3-16.66-1.2-16.94,9.15a3.77,3.77,0,0,0-.89-.34c-8.32-4.25-14.94-.16-15,9.53,0,9.87,6.81,21.85,15.35,27.05.1.08,4.5,2.63,10.34,6,11.67,6.74,29.06,16.74,29.06,16.74,8.73,5,15.85,1,15.87-9s-7-22.27-15.77-27.32l-5.23-3.15C1369.09,67.26,1361.66,54.55,1352.48,49.25Z" transform="translate(-1020.57 -7)"/></g><path class="cls-27" d="M1667.11,440.39,1685,450.71a6,6,0,0,1,2.51,4.79v23.79c0,1.85-1.12,2.7-2.51,1.9l-17.88-10.33a6,6,0,0,1-2.51-4.79V442.28a2.28,2.28,0,0,1,.81-2A1.58,1.58,0,0,1,1667.11,440.39Z" transform="translate(-1020.57 -7)"/><path class="cls-20" d="M1173.24,268.35l.33-.18c-5.33-7.53-8.8-16.77-8.8-25,0-4.9,1.25-8.75,3.41-11.34l-.66-.38,5.3-3.05c3.86-2.49,9.34-2.28,15.42,1.23,11.71,6.76,21.21,23.21,21.21,36.75,0,6.64-2.29,11.35-6,13.61l-6.09,3.52-1.23-.71A18.64,18.64,0,0,1,1186,280a38.39,38.39,0,0,1-10.12-8.8l-3.75-2.17Z" transform="translate(-1020.57 -7)"/><ellipse class="cls-21" cx="1182.02" cy="257.78" rx="17.33" ry="30.02" transform="translate(-991.1 618.55) rotate(-30)"/><g class="cls-44"><path class="cls-45" d="M1432,679.46l-263.26-150.1c-2.77-1.6-7.51-1.46-10.59.32L1020.58,604.8V611a3.2,3.2,0,0,0,1.92,3l266,153.59c2.77,1.6,7.51,1.46,10.59-.32L1434.21,702c1.65-1,2.49-2.18,2.49-3.36V679.46Z" transform="translate(-1020.57 -7)"/></g><path class="cls-18" d="M1432,674.94l-263.26-150.1c-2.77-1.6-7.51-1.45-10.59.32l-137.57,75.13v4.5a3.21,3.21,0,0,0,1.92,3l266,153.59c2.77,1.6,7.51,1.46,10.59-.32l135.09-76.51c1.65-.95,2.49-2.18,2.49-3.36v-6.25Z" transform="translate(-1020.57 -7)"/><path class="cls-20" d="M1168.74,518.59l266,153.6a3.29,3.29,0,0,1,1.93,2.75c0,1.18-.84,2.41-2.49,3.36l-135.09,78.25c-3.08,1.78-7.82,1.92-10.59.33l-266-153.6a3.2,3.2,0,0,1-1.92-3,4.37,4.37,0,0,1,2.48-3.13l135.09-78.25C1161.23,517.14,1166,517,1168.74,518.59Z" transform="translate(-1020.57 -7)"/><polygon class="cls-21" points="277.24 739.16 20.67 591.03 142.41 520.52 398.98 668.65 277.24 739.16"/><g class="cls-40"><path class="cls-18" d="M1294.3,688.87l44.29,25.57a1.17,1.17,0,0,1,0,2.21l-15,8.67a4.24,4.24,0,0,1-3.83,0l-44.29-25.57a1.17,1.17,0,0,1,0-2.21l15-8.67A4.24,4.24,0,0,1,1294.3,688.87Z" transform="translate(-1020.57 -7)"/><path class="cls-18" d="M1097.93,575.49l44.29,25.57a1.17,1.17,0,0,1,0,2.21l-15,8.67a4.24,4.24,0,0,1-3.83,0l-44.28-25.56a1.17,1.17,0,0,1,0-2.21l15-8.68A4.24,4.24,0,0,1,1097.93,575.49Z" transform="translate(-1020.57 -7)"/><path class="cls-18" d="M1151.29,606.3l15.23,8.79a1.17,1.17,0,0,1,0,2.21l-15,8.68a4.24,4.24,0,0,1-3.83,0l-15.24-8.8a1.17,1.17,0,0,1,0-2.21l15-8.67A4.24,4.24,0,0,1,1151.29,606.3Z" transform="translate(-1020.57 -7)"/><path class="cls-18" d="M1175,620l15.23,8.79c1.06.62,1.06,1.6,0,2.21l-15,8.68a4.24,4.24,0,0,1-3.83,0l-15.24-8.8a1.17,1.17,0,0,1,0-2.21l15-8.67A4.24,4.24,0,0,1,1175,620Z" transform="translate(-1020.57 -7)"/><path class="cls-18" d="M1198.69,633.66l15.23,8.8a1.17,1.17,0,0,1,0,2.21l-15,8.67a4.24,4.24,0,0,1-3.83,0l-15.24-8.79a1.17,1.17,0,0,1,0-2.21l15-8.68A4.24,4.24,0,0,1,1198.69,633.66Z" transform="translate(-1020.57 -7)"/><path class="cls-18" d="M1222.39,647.35l15.23,8.79a1.17,1.17,0,0,1,0,2.21l-15,8.67a4.21,4.21,0,0,1-3.83,0l-15.24-8.8a1.17,1.17,0,0,1,0-2.21l15-8.67A4.24,4.24,0,0,1,1222.39,647.35Z" transform="translate(-1020.57 -7)"/><path class="cls-18" d="M1246.09,661l15.23,8.79a1.17,1.17,0,0,1,0,2.21l-15,8.68a4.24,4.24,0,0,1-3.83,0l-15.24-8.8a1.17,1.17,0,0,1,0-2.21l15-8.67A4.24,4.24,0,0,1,1246.09,661Z" transform="translate(-1020.57 -7)"/><path class="cls-18" d="M1269.78,674.71l15.24,8.8a1.17,1.17,0,0,1,0,2.21l-15,8.67a4.22,4.22,0,0,1-3.82,0l-15.24-8.79a1.18,1.18,0,0,1,0-2.22l15-8.67A4.22,4.22,0,0,1,1269.78,674.71Z" transform="translate(-1020.57 -7)"/><path class="cls-18" d="M1330.09,681.41l32.53,18.78a1.36,1.36,0,0,1,0,2.58l-14.38,8.31a5,5,0,0,1-4.48,0l-32.52-18.79c-1.24-.71-1.24-1.86,0-2.58l14.38-8.3A5,5,0,0,1,1330.09,681.41Z" transform="translate(-1020.57 -7)"/><path class="cls-18" d="M1122.94,561.82l32.53,18.78a1.36,1.36,0,0,1,0,2.58l-14.38,8.3a5,5,0,0,1-4.47,0l-32.53-18.78a1.36,1.36,0,0,1,0-2.58l14.38-8.3A4.9,4.9,0,0,1,1122.94,561.82Z" transform="translate(-1020.57 -7)"/><path class="cls-18" d="M1164.8,586l14.59,8.43a1.36,1.36,0,0,1,0,2.58l-14.38,8.3a5,5,0,0,1-4.47,0L1146,596.87c-1.24-.72-1.24-1.87,0-2.59l14.38-8.3A5,5,0,0,1,1164.8,586Z" transform="translate(-1020.57 -7)"/><path class="cls-18" d="M1188.29,599.55l14.59,8.42a1.36,1.36,0,0,1,0,2.58l-14.38,8.3a4.9,4.9,0,0,1-4.47,0l-14.59-8.42a1.36,1.36,0,0,1,0-2.58l14.38-8.3A4.9,4.9,0,0,1,1188.29,599.55Z" transform="translate(-1020.57 -7)"/><path class="cls-18" d="M1211.78,613.11l14.6,8.42a1.36,1.36,0,0,1,0,2.58L1212,632.42a5,5,0,0,1-4.47,0L1192.93,624a1.36,1.36,0,0,1,0-2.58l14.38-8.3A5,5,0,0,1,1211.78,613.11Z" transform="translate(-1020.57 -7)"/><path class="cls-18" d="M1235.28,626.67l14.59,8.43a1.36,1.36,0,0,1,0,2.58l-14.38,8.3a5,5,0,0,1-4.47,0l-14.59-8.42c-1.24-.72-1.24-1.87,0-2.58l14.38-8.31A5,5,0,0,1,1235.28,626.67Z" transform="translate(-1020.57 -7)"/><path class="cls-18" d="M1258.77,640.24l14.59,8.42a1.36,1.36,0,0,1,0,2.58l-14.38,8.3a4.9,4.9,0,0,1-4.47,0l-14.59-8.42a1.36,1.36,0,0,1,0-2.58l14.38-8.3A4.9,4.9,0,0,1,1258.77,640.24Z" transform="translate(-1020.57 -7)"/><path class="cls-18" d="M1282.26,653.8l14.59,8.42c1.24.72,1.24,1.87,0,2.59l-14.38,8.3a5,5,0,0,1-4.47,0l-14.59-8.43a1.36,1.36,0,0,1,0-2.58l14.38-8.3A5,5,0,0,1,1282.26,653.8Z" transform="translate(-1020.57 -7)"/><path class="cls-18" d="M1305.76,667.36l14.59,8.43a1.36,1.36,0,0,1,0,2.58l-14.38,8.3a4.9,4.9,0,0,1-4.47,0l-14.6-8.42a1.36,1.36,0,0,1,0-2.58l14.39-8.31A5,5,0,0,1,1305.76,667.36Z" transform="translate(-1020.57 -7)"/><path class="cls-18" d="M1258.68,697l-110.27-63.66a3.46,3.46,0,0,0-3.16,0l-15.74,9.08c-.86.5-.83,1.32,0,1.83l110.27,63.66a3.46,3.46,0,0,0,3.16,0l15.74-9.08C1259.59,698.35,1259.57,697.53,1258.68,697Z" transform="translate(-1020.57 -7)"/><path class="cls-18" d="M1267.51,701.27l23.36,13.57a1,1,0,0,1,0,1.8l-15.74,9.09a3.47,3.47,0,0,1-3.11,0l-23.36-13.58a.94.94,0,0,1,0-1.79l15.73-9.09A3.43,3.43,0,0,1,1267.51,701.27Z" transform="translate(-1020.57 -7)"/><path class="cls-18" d="M1298.86,719.37l16,9.21a1,1,0,0,1,0,1.8l-15.74,9.08a3.41,3.41,0,0,1-3.11,0l-16-9.2a1,1,0,0,1,0-1.8l15.74-9.09A3.47,3.47,0,0,1,1298.86,719.37Z" transform="translate(-1020.57 -7)"/><path class="cls-18" d="M1124.6,619.54l-11.74-6.78a3.08,3.08,0,0,0-2.71.23l-5.36,3.1c-.85.49-1,1.19-.4,1.56l11.74,6.78a3.05,3.05,0,0,0,2.71-.24l5.35-3.09C1125.05,620.61,1125.24,619.91,1124.6,619.54Z" transform="translate(-1020.57 -7)"/><path class="cls-18" d="M1097.77,616.05,1086,609.27a3.06,3.06,0,0,0-2.7.23l-5.36,3.1c-.86.49-1,1.19-.41,1.56l11.75,6.78a3.07,3.07,0,0,0,2.7-.24l5.36-3.09C1098.22,617.11,1098.41,616.41,1097.77,616.05Z" transform="translate(-1020.57 -7)"/><path class="cls-18" d="M1114.52,625.72l-11.75-6.79a3.07,3.07,0,0,0-2.7.24l-5.36,3.09c-.86.5-1,1.2-.41,1.56l11.75,6.79a3.07,3.07,0,0,0,2.7-.24l5.36-3.09C1115,626.78,1115.15,626.08,1114.52,625.72Z" transform="translate(-1020.57 -7)"/><path class="cls-18" d="M1131.26,635.38l-11.74-6.78a3.09,3.09,0,0,0-2.71.24l-5.36,3.09c-.86.5-1,1.2-.4,1.56l11.74,6.79a3.12,3.12,0,0,0,2.71-.24l5.35-3.09C1131.71,636.45,1131.9,635.75,1131.26,635.38Z" transform="translate(-1020.57 -7)"/><path class="cls-18" d="M1359.44,670.59l27.3,15.77a1.31,1.31,0,0,1,0,2.49l-14.54,8.39a4.75,4.75,0,0,1-4.31,0l-27.3-15.76a1.31,1.31,0,0,1,0-2.49l14.54-8.4A4.81,4.81,0,0,1,1359.44,670.59Z" transform="translate(-1020.57 -7)"/><path class="cls-18" d="M1146.9,547.89l14.75,8.51a1.31,1.31,0,0,1,0,2.49l-14.53,8.4a4.83,4.83,0,0,1-4.32,0l-14.75-8.52a1.31,1.31,0,0,1,0-2.49l14.54-8.39A4.75,4.75,0,0,1,1146.9,547.89Z" transform="translate(-1020.57 -7)"/><path class="cls-18" d="M1170.42,561.46l14.75,8.52a1.31,1.31,0,0,1,0,2.49l-14.54,8.39a4.77,4.77,0,0,1-4.32,0l-14.75-8.52a1.31,1.31,0,0,1,0-2.48l14.54-8.4A4.77,4.77,0,0,1,1170.42,561.46Z" transform="translate(-1020.57 -7)"/><path class="cls-18" d="M1193.93,575l14.75,8.52a1.31,1.31,0,0,1,0,2.49l-14.54,8.39a4.77,4.77,0,0,1-4.32,0l-14.75-8.51a1.31,1.31,0,0,1,0-2.49l14.54-8.4A4.83,4.83,0,0,1,1193.93,575Z" transform="translate(-1020.57 -7)"/><path class="cls-18" d="M1217.44,588.61l14.75,8.51a1.31,1.31,0,0,1,0,2.49l-14.54,8.4a4.77,4.77,0,0,1-4.32,0l-14.74-8.52a1.31,1.31,0,0,1,0-2.49l14.53-8.39A4.77,4.77,0,0,1,1217.44,588.61Z" transform="translate(-1020.57 -7)"/><path class="cls-18" d="M1241,602.18l14.75,8.52a1.31,1.31,0,0,1,0,2.49l-14.54,8.39a4.75,4.75,0,0,1-4.31,0l-14.75-8.51a1.31,1.31,0,0,1,0-2.49l14.54-8.4A4.81,4.81,0,0,1,1241,602.18Z" transform="translate(-1020.57 -7)"/><path class="cls-18" d="M1264.46,615.76l14.75,8.51a1.31,1.31,0,0,1,0,2.49l-14.54,8.4a4.81,4.81,0,0,1-4.31,0l-14.75-8.52a1.31,1.31,0,0,1,0-2.49l14.54-8.39A4.75,4.75,0,0,1,1264.46,615.76Z" transform="translate(-1020.57 -7)"/><path class="cls-18" d="M1288,629.33l14.75,8.52a1.31,1.31,0,0,1,0,2.49l-14.54,8.39a4.75,4.75,0,0,1-4.31,0l-14.75-8.52a1.31,1.31,0,0,1,0-2.48l14.54-8.4A4.75,4.75,0,0,1,1288,629.33Z" transform="translate(-1020.57 -7)"/><path class="cls-18" d="M1311.48,642.9l14.75,8.52a1.31,1.31,0,0,1,0,2.49l-14.54,8.39a4.75,4.75,0,0,1-4.31,0l-14.75-8.51a1.31,1.31,0,0,1,0-2.49l14.54-8.4A4.81,4.81,0,0,1,1311.48,642.9Z" transform="translate(-1020.57 -7)"/><path class="cls-18" d="M1335,656.48l14.75,8.51a1.31,1.31,0,0,1,0,2.49l-14.54,8.4a4.75,4.75,0,0,1-4.31,0l-14.75-8.52a1.31,1.31,0,0,1,0-2.49l14.54-8.39A4.75,4.75,0,0,1,1335,656.48Z" transform="translate(-1020.57 -7)"/><path class="cls-18" d="M1404.47,676.09,1389,667.16a4.85,4.85,0,0,0-4.36,0l-8.21,4.74a1.33,1.33,0,0,0,0,2.52l15.47,8.92a4.79,4.79,0,0,0,4.36,0l8.2-4.73A1.33,1.33,0,0,0,1404.47,676.09Z" transform="translate(-1020.57 -7)"/><path class="cls-18" d="M1379.55,661.7l-15.46-8.93a4.87,4.87,0,0,0-4.37,0l-8.2,4.74a1.33,1.33,0,0,0,0,2.52L1367,669a4.79,4.79,0,0,0,4.36,0l8.21-4.73A1.33,1.33,0,0,0,1379.55,661.7Z" transform="translate(-1020.57 -7)"/><path class="cls-18" d="M1354.62,647.31l-15.46-8.93a4.85,4.85,0,0,0-4.36,0l-8.2,4.74a1.33,1.33,0,0,0,0,2.52l15.46,8.92a4.79,4.79,0,0,0,4.36,0l8.2-4.73A1.33,1.33,0,0,0,1354.62,647.31Z" transform="translate(-1020.57 -7)"/><path class="cls-18" d="M1329.7,632.92,1314.24,624a4.87,4.87,0,0,0-4.37,0l-8.2,4.74a1.33,1.33,0,0,0,0,2.52l15.46,8.92a4.79,4.79,0,0,0,4.36,0l8.21-4.73A1.33,1.33,0,0,0,1329.7,632.92Z" transform="translate(-1020.57 -7)"/><path class="cls-18" d="M1304.77,618.53l-15.46-8.93a4.85,4.85,0,0,0-4.36,0l-8.2,4.74a1.32,1.32,0,0,0,0,2.51l15.46,8.93a4.79,4.79,0,0,0,4.36,0l8.2-4.73A1.33,1.33,0,0,0,1304.77,618.53Z" transform="translate(-1020.57 -7)"/><path class="cls-18" d="M1279.85,604.14l-15.46-8.93a4.79,4.79,0,0,0-4.36,0l-8.21,4.74a1.33,1.33,0,0,0,0,2.51l15.46,8.93a4.81,4.81,0,0,0,4.37,0l8.2-4.73A1.33,1.33,0,0,0,1279.85,604.14Z" transform="translate(-1020.57 -7)"/><path class="cls-18" d="M1254.92,589.75l-15.46-8.93a4.79,4.79,0,0,0-4.36,0l-8.2,4.74a1.32,1.32,0,0,0,0,2.51l15.46,8.93a4.79,4.79,0,0,0,4.36,0l8.2-4.73A1.33,1.33,0,0,0,1254.92,589.75Z" transform="translate(-1020.57 -7)"/><path class="cls-18" d="M1230,575.36l-15.46-8.93a4.79,4.79,0,0,0-4.36,0l-8.21,4.74a1.33,1.33,0,0,0,0,2.51l15.47,8.93a4.79,4.79,0,0,0,4.36,0l8.2-4.73A1.33,1.33,0,0,0,1230,575.36Z" transform="translate(-1020.57 -7)"/><path class="cls-18" d="M1205.07,561,1189.61,552a4.79,4.79,0,0,0-4.36,0l-8.2,4.74a1.32,1.32,0,0,0,0,2.51l15.46,8.93a4.79,4.79,0,0,0,4.36,0l8.2-4.73A1.33,1.33,0,0,0,1205.07,561Z" transform="translate(-1020.57 -7)"/><path class="cls-18" d="M1180.15,546.58l-15.46-8.93a4.79,4.79,0,0,0-4.36,0l-8.21,4.74a1.33,1.33,0,0,0,0,2.51l15.47,8.93a4.79,4.79,0,0,0,4.36,0l8.2-4.74A1.32,1.32,0,0,0,1180.15,546.58Z" transform="translate(-1020.57 -7)"/></g><path class="cls-20" d="M1294.3,687l44.29,25.56a1.17,1.17,0,0,1,0,2.21l-15,8.68a4.24,4.24,0,0,1-3.83,0l-44.29-25.57a1.17,1.17,0,0,1,0-2.21l15-8.67A4.24,4.24,0,0,1,1294.3,687Z" transform="translate(-1020.57 -7)"/><path class="cls-20" d="M1097.93,573.65l44.29,25.57a1.17,1.17,0,0,1,0,2.21l-15,8.67a4.24,4.24,0,0,1-3.83,0l-44.28-25.57a1.17,1.17,0,0,1,0-2.21l15-8.67A4.24,4.24,0,0,1,1097.93,573.65Z" transform="translate(-1020.57 -7)"/><path class="cls-20" d="M1151.29,604.46l15.23,8.79a1.17,1.17,0,0,1,0,2.21l-15,8.67a4.24,4.24,0,0,1-3.83,0l-15.24-8.79a1.17,1.17,0,0,1,0-2.21l15-8.67A4.21,4.21,0,0,1,1151.29,604.46Z" transform="translate(-1020.57 -7)"/><path class="cls-20" d="M1175,618.14l15.23,8.79a1.17,1.17,0,0,1,0,2.21l-15,8.68a4.24,4.24,0,0,1-3.83,0l-15.24-8.8a1.17,1.17,0,0,1,0-2.21l15-8.67A4.24,4.24,0,0,1,1175,618.14Z" transform="translate(-1020.57 -7)"/><path class="cls-20" d="M1198.69,631.82l15.23,8.8a1.17,1.17,0,0,1,0,2.21l-15,8.67a4.24,4.24,0,0,1-3.83,0l-15.24-8.8a1.17,1.17,0,0,1,0-2.21l15-8.67A4.24,4.24,0,0,1,1198.69,631.82Z" transform="translate(-1020.57 -7)"/><path class="cls-20" d="M1222.39,645.5l15.23,8.8a1.17,1.17,0,0,1,0,2.21l-15,8.67a4.24,4.24,0,0,1-3.83,0l-15.24-8.79a1.17,1.17,0,0,1,0-2.21l15-8.68A4.24,4.24,0,0,1,1222.39,645.5Z" transform="translate(-1020.57 -7)"/><path class="cls-20" d="M1246.09,659.19l15.23,8.79a1.17,1.17,0,0,1,0,2.21l-15,8.68a4.24,4.24,0,0,1-3.83,0l-15.24-8.8a1.17,1.17,0,0,1,0-2.21l15-8.67A4.24,4.24,0,0,1,1246.09,659.19Z" transform="translate(-1020.57 -7)"/><path class="cls-20" d="M1269.78,672.87l15.24,8.8c1.06.61,1.06,1.59,0,2.21l-15,8.67a4.22,4.22,0,0,1-3.82,0l-15.24-8.8a1.17,1.17,0,0,1,0-2.21l15-8.67A4.22,4.22,0,0,1,1269.78,672.87Z" transform="translate(-1020.57 -7)"/><path class="cls-20" d="M1330.09,679.57l32.53,18.78a1.36,1.36,0,0,1,0,2.58l-14.38,8.3a4.92,4.92,0,0,1-4.48,0l-32.52-18.78c-1.24-.71-1.24-1.86,0-2.58l14.38-8.3A5,5,0,0,1,1330.09,679.57Z" transform="translate(-1020.57 -7)"/><path class="cls-20" d="M1122.94,560l32.53,18.78a1.37,1.37,0,0,1,0,2.59l-14.38,8.3a5,5,0,0,1-4.47,0l-32.53-18.78c-1.24-.72-1.24-1.87,0-2.58l14.38-8.31A5,5,0,0,1,1122.94,560Z" transform="translate(-1020.57 -7)"/><path class="cls-20" d="M1164.8,584.14l14.59,8.43a1.36,1.36,0,0,1,0,2.58l-14.38,8.3a5,5,0,0,1-4.47,0L1146,595c-1.24-.72-1.24-1.87,0-2.59l14.38-8.3A5,5,0,0,1,1164.8,584.14Z" transform="translate(-1020.57 -7)"/><path class="cls-20" d="M1188.29,597.7l14.59,8.43a1.36,1.36,0,0,1,0,2.58L1188.5,617a4.9,4.9,0,0,1-4.47,0l-14.59-8.42a1.36,1.36,0,0,1,0-2.58l14.38-8.31A5,5,0,0,1,1188.29,597.7Z" transform="translate(-1020.57 -7)"/><path class="cls-20" d="M1211.78,611.27l14.6,8.42a1.36,1.36,0,0,1,0,2.58L1212,630.58a5,5,0,0,1-4.47,0l-14.59-8.43a1.36,1.36,0,0,1,0-2.58l14.38-8.3A4.9,4.9,0,0,1,1211.78,611.27Z" transform="translate(-1020.57 -7)"/><path class="cls-20" d="M1235.28,624.83l14.59,8.43a1.36,1.36,0,0,1,0,2.58l-14.38,8.3a5,5,0,0,1-4.47,0l-14.59-8.42c-1.24-.72-1.24-1.87,0-2.59l14.38-8.3A5,5,0,0,1,1235.28,624.83Z" transform="translate(-1020.57 -7)"/><path class="cls-20" d="M1258.77,638.4l14.59,8.42a1.36,1.36,0,0,1,0,2.58L1259,657.7a4.9,4.9,0,0,1-4.47,0l-14.59-8.42a1.36,1.36,0,0,1,0-2.58l14.38-8.3A4.9,4.9,0,0,1,1258.77,638.4Z" transform="translate(-1020.57 -7)"/><path class="cls-20" d="M1282.26,652l14.59,8.42c1.24.72,1.24,1.87,0,2.58l-14.38,8.31a5,5,0,0,1-4.47,0l-14.59-8.43a1.36,1.36,0,0,1,0-2.58l14.38-8.3A5,5,0,0,1,1282.26,652Z" transform="translate(-1020.57 -7)"/><path class="cls-20" d="M1305.76,665.52l14.59,8.43a1.36,1.36,0,0,1,0,2.58l-14.38,8.3a5,5,0,0,1-4.47,0l-14.6-8.42a1.36,1.36,0,0,1,0-2.58l14.39-8.31A5,5,0,0,1,1305.76,665.52Z" transform="translate(-1020.57 -7)"/><path class="cls-20" d="M1258.68,695.18l-110.27-63.67a3.49,3.49,0,0,0-3.16,0l-15.74,9.08c-.86.5-.83,1.32,0,1.83l110.27,63.66a3.49,3.49,0,0,0,3.16,0l15.74-9.09C1259.59,696.51,1259.57,695.69,1258.68,695.18Z" transform="translate(-1020.57 -7)"/><path class="cls-20" d="M1298.86,717.53l16,9.21a1,1,0,0,1,0,1.8l-15.74,9.08a3.41,3.41,0,0,1-3.11,0l-16-9.21a.94.94,0,0,1,0-1.79l15.74-9.09A3.47,3.47,0,0,1,1298.86,717.53Z" transform="translate(-1020.57 -7)"/><path class="cls-20" d="M1267.51,699.43,1290.87,713a1,1,0,0,1,0,1.8l-15.74,9.08a3.41,3.41,0,0,1-3.11,0l-23.36-13.57a.94.94,0,0,1,0-1.79l15.73-9.09A3.43,3.43,0,0,1,1267.51,699.43Z" transform="translate(-1020.57 -7)"/><path class="cls-20" d="M1124.6,617.7l-11.74-6.78a3.08,3.08,0,0,0-2.71.23l-5.36,3.1c-.85.49-1,1.19-.4,1.56l11.74,6.78a3.05,3.05,0,0,0,2.71-.24l5.35-3.09C1125.05,618.76,1125.24,618.06,1124.6,617.7Z" transform="translate(-1020.57 -7)"/><path class="cls-20" d="M1097.77,614.21,1086,607.42a3.07,3.07,0,0,0-2.7.24l-5.36,3.09c-.86.5-1,1.2-.41,1.57l11.75,6.78a3.07,3.07,0,0,0,2.7-.24l5.36-3.09C1098.22,615.27,1098.41,614.57,1097.77,614.21Z" transform="translate(-1020.57 -7)"/><path class="cls-20" d="M1114.52,623.87l-11.75-6.78a3.07,3.07,0,0,0-2.7.24l-5.36,3.09c-.86.5-1,1.2-.41,1.56l11.75,6.79a3.07,3.07,0,0,0,2.7-.24l5.36-3.09C1115,624.94,1115.15,624.24,1114.52,623.87Z" transform="translate(-1020.57 -7)"/><path class="cls-20" d="M1131.26,633.54l-11.74-6.78a3.05,3.05,0,0,0-2.71.24l-5.36,3.09c-.86.5-1,1.19-.4,1.56l11.74,6.78a3.08,3.08,0,0,0,2.71-.23l5.35-3.1C1131.71,634.61,1131.9,633.91,1131.26,633.54Z" transform="translate(-1020.57 -7)"/><path class="cls-20" d="M1359.44,668.75l27.3,15.76a1.31,1.31,0,0,1,0,2.49l-14.54,8.4a4.75,4.75,0,0,1-4.31,0l-27.3-15.76a1.31,1.31,0,0,1,0-2.49l14.54-8.4A4.81,4.81,0,0,1,1359.44,668.75Z" transform="translate(-1020.57 -7)"/><path class="cls-20" d="M1146.9,546.05l14.75,8.51a1.31,1.31,0,0,1,0,2.49l-14.53,8.4a4.83,4.83,0,0,1-4.32,0l-14.75-8.52a1.31,1.31,0,0,1,0-2.49l14.54-8.39A4.75,4.75,0,0,1,1146.9,546.05Z" transform="translate(-1020.57 -7)"/><path class="cls-20" d="M1170.42,559.62l14.75,8.52a1.31,1.31,0,0,1,0,2.48l-14.54,8.4a4.77,4.77,0,0,1-4.32,0l-14.75-8.52a1.31,1.31,0,0,1,0-2.49l14.54-8.39A4.77,4.77,0,0,1,1170.42,559.62Z" transform="translate(-1020.57 -7)"/><path class="cls-20" d="M1193.93,573.19l14.75,8.52a1.31,1.31,0,0,1,0,2.49l-14.54,8.39a4.77,4.77,0,0,1-4.32,0l-14.75-8.51a1.31,1.31,0,0,1,0-2.49l14.54-8.4A4.83,4.83,0,0,1,1193.93,573.19Z" transform="translate(-1020.57 -7)"/><path class="cls-20" d="M1217.44,586.77l14.75,8.51a1.31,1.31,0,0,1,0,2.49l-14.54,8.4a4.83,4.83,0,0,1-4.32,0l-14.74-8.52a1.31,1.31,0,0,1,0-2.49l14.53-8.39A4.77,4.77,0,0,1,1217.44,586.77Z" transform="translate(-1020.57 -7)"/><path class="cls-20" d="M1241,600.34l14.75,8.52a1.31,1.31,0,0,1,0,2.49l-14.54,8.39a4.75,4.75,0,0,1-4.31,0l-14.75-8.51a1.31,1.31,0,0,1,0-2.49l14.54-8.4A4.75,4.75,0,0,1,1241,600.34Z" transform="translate(-1020.57 -7)"/><path class="cls-20" d="M1264.46,613.91l14.75,8.52a1.31,1.31,0,0,1,0,2.49l-14.54,8.39a4.75,4.75,0,0,1-4.31,0l-14.75-8.51a1.31,1.31,0,0,1,0-2.49l14.54-8.4A4.81,4.81,0,0,1,1264.46,613.91Z" transform="translate(-1020.57 -7)"/><path class="cls-20" d="M1288,627.49l14.75,8.51a1.31,1.31,0,0,1,0,2.49l-14.54,8.4a4.75,4.75,0,0,1-4.31,0l-14.75-8.52a1.31,1.31,0,0,1,0-2.49l14.54-8.39A4.75,4.75,0,0,1,1288,627.49Z" transform="translate(-1020.57 -7)"/><path class="cls-20" d="M1311.48,641.06l14.75,8.52a1.31,1.31,0,0,1,0,2.49l-14.54,8.39a4.75,4.75,0,0,1-4.31,0L1292.63,652a1.31,1.31,0,0,1,0-2.49l14.54-8.4A4.81,4.81,0,0,1,1311.48,641.06Z" transform="translate(-1020.57 -7)"/><path class="cls-20" d="M1335,654.64l14.75,8.51a1.31,1.31,0,0,1,0,2.49L1335.2,674a4.81,4.81,0,0,1-4.31,0l-14.75-8.52a1.31,1.31,0,0,1,0-2.49l14.54-8.39A4.75,4.75,0,0,1,1335,654.64Z" transform="translate(-1020.57 -7)"/><path class="cls-20" d="M1404.47,674.25,1389,665.32a4.79,4.79,0,0,0-4.36,0l-8.21,4.74a1.33,1.33,0,0,0,0,2.51l15.47,8.93a4.79,4.79,0,0,0,4.36,0l8.2-4.73A1.33,1.33,0,0,0,1404.47,674.25Z" transform="translate(-1020.57 -7)"/><path class="cls-20" d="M1379.55,659.86l-15.46-8.93a4.81,4.81,0,0,0-4.37,0l-8.2,4.74a1.33,1.33,0,0,0,0,2.51l15.46,8.93a4.79,4.79,0,0,0,4.36,0l8.21-4.73A1.33,1.33,0,0,0,1379.55,659.86Z" transform="translate(-1020.57 -7)"/><path class="cls-20" d="M1354.62,645.47l-15.46-8.93a4.79,4.79,0,0,0-4.36,0l-8.2,4.74a1.32,1.32,0,0,0,0,2.51l15.46,8.93a4.79,4.79,0,0,0,4.36,0l8.2-4.74A1.32,1.32,0,0,0,1354.62,645.47Z" transform="translate(-1020.57 -7)"/><path class="cls-20" d="M1329.7,631.08l-15.46-8.93a4.81,4.81,0,0,0-4.37,0l-8.2,4.74a1.33,1.33,0,0,0,0,2.51l15.46,8.93a4.79,4.79,0,0,0,4.36,0l8.21-4.73A1.33,1.33,0,0,0,1329.7,631.08Z" transform="translate(-1020.57 -7)"/><path class="cls-20" d="M1304.77,616.69l-15.46-8.93a4.79,4.79,0,0,0-4.36,0l-8.2,4.74a1.32,1.32,0,0,0,0,2.51l15.46,8.93a4.79,4.79,0,0,0,4.36,0l8.2-4.74A1.32,1.32,0,0,0,1304.77,616.69Z" transform="translate(-1020.57 -7)"/><path class="cls-20" d="M1279.85,602.3l-15.46-8.93a4.79,4.79,0,0,0-4.36,0l-8.21,4.73a1.33,1.33,0,0,0,0,2.52l15.46,8.93a4.81,4.81,0,0,0,4.37,0l8.2-4.74A1.33,1.33,0,0,0,1279.85,602.3Z" transform="translate(-1020.57 -7)"/><path class="cls-20" d="M1254.92,587.91,1239.46,579a4.79,4.79,0,0,0-4.36,0l-8.2,4.74a1.32,1.32,0,0,0,0,2.51l15.46,8.93a4.79,4.79,0,0,0,4.36,0l8.2-4.74A1.32,1.32,0,0,0,1254.92,587.91Z" transform="translate(-1020.57 -7)"/><path class="cls-20" d="M1230,573.52l-15.46-8.93a4.79,4.79,0,0,0-4.36,0l-8.21,4.73a1.33,1.33,0,0,0,0,2.52l15.47,8.93a4.79,4.79,0,0,0,4.36,0L1230,576A1.33,1.33,0,0,0,1230,573.52Z" transform="translate(-1020.57 -7)"/><path class="cls-20" d="M1205.07,559.13l-15.46-8.93a4.79,4.79,0,0,0-4.36,0l-8.2,4.73a1.33,1.33,0,0,0,0,2.52l15.46,8.93a4.79,4.79,0,0,0,4.36,0l8.2-4.74A1.32,1.32,0,0,0,1205.07,559.13Z" transform="translate(-1020.57 -7)"/><path class="cls-20" d="M1180.15,544.74l-15.46-8.93a4.79,4.79,0,0,0-4.36,0l-8.21,4.73a1.33,1.33,0,0,0,0,2.52l15.47,8.93a4.85,4.85,0,0,0,4.36,0l8.2-4.74A1.32,1.32,0,0,0,1180.15,544.74Z" transform="translate(-1020.57 -7)"/><path class="cls-28" d="M1088.6,599.06l-15.94-9.21a3.49,3.49,0,0,0-3.12,0l-15.74,9.09a1,1,0,0,0,0,1.8l16,9.2a3.43,3.43,0,0,0,3.12,0l15.73-9.08A1,1,0,0,0,1088.6,599.06Z" transform="translate(-1020.57 -7)"/><path class="cls-20" d="M1088.6,597.22,1072.66,588a3.43,3.43,0,0,0-3.12,0l-15.74,9.09a.94.94,0,0,0,0,1.79l16,9.21a3.43,3.43,0,0,0,3.12,0L1088.6,599A1,1,0,0,0,1088.6,597.22Z" transform="translate(-1020.57 -7)"/><path class="cls-46" d="M1180.35,258.25a7,7,0,0,1-1.2-.88,10.17,10.17,0,0,1-3.29-7.06V249c0-2.92,2.07-4.11,4.61-2.66a10.18,10.18,0,0,1,4.61,8v1.28c0,2.26-1.18,3.62-2.92,3.36a4.79,4.79,0,0,1-1.58-.59Zm.14-13.32c-3.25-1.87-5.89-.35-5.89,3.38v1.27a13,13,0,0,0,4.21,9,9.46,9.46,0,0,0,1.53,1.1l.24.14a5.83,5.83,0,0,0,2,.75c2.23.34,3.74-1.37,3.74-4.24V255A12.93,12.93,0,0,0,1180.49,244.93Z" transform="translate(-1020.57 -7)"/><path class="cls-46" d="M1187.82,266.06l-14.52-8.39c-2.9-1.67-5.28-.32-5.29,3v7.39c.41.65.83,1.29,1.26,1.91v-8.58c0-2.53,1.82-3.56,4-2.29l14.52,8.39a8.83,8.83,0,0,1,4,6.91v10.75c.44,0,.85-.06,1.27-.11v-9.91A11.59,11.59,0,0,0,1187.82,266.06Z" transform="translate(-1020.57 -7)"/><path class="cls-20" d="M1800.12,167.46c0-10.27-7.2-22.8-16.14-28l-5.35-3.22c-.22-10.87-7.82-23.88-17.21-29.31-4.4-2.54-8.41-2.94-11.47-1.58,0,0-.35.15-.35.15-.25.13-11.51,6.65-11.51,6.65l0,2.19a9,9,0,0,0-4.69.57c-.55.25-11.86,6.84-11.86,6.84l.09,11.79s14.32,15.21,21.92,19.83c.1.08,4.61,2.7,10.58,6.14,11.08,6.4,27.18,15.67,29.44,17l.06,8.12,11.85-6.85C1798.34,176,1800.1,172.49,1800.12,167.46Z" transform="translate(-1020.57 -7)"/><g class="cls-2"><path class="cls-21" d="M1750.12,113.54c-9.38-5.41-17-1.21-17.32,9.37a4,4,0,0,0-.92-.34c-8.51-4.36-15.29-.17-15.31,9.74,0,10.1,7,22.35,15.71,27.67.09.08,4.6,2.7,10.57,6.14,11.94,6.9,29.73,17.13,29.73,17.13,8.93,5.16,16.21,1.05,16.24-9.22s-7.2-22.8-16.14-28l-5.35-3.22C1767.11,132,1759.52,119,1750.12,113.54Z" transform="translate(-1020.57 -7)"/></g><path class="cls-46" d="M1746.94,168.48l1.63,1V138.08l10.78,18.67a1.6,1.6,0,0,0,.53.56.5.5,0,0,0,.52,0,.52.52,0,0,0,.23-.46,1.51,1.51,0,0,0-.23-.74l-12-20.87-.24-.31-.28-.23-.29-.1-.24,0-12.13,6.91c-.29.17-.29.71,0,1.2a1.52,1.52,0,0,0,.53.56.5.5,0,0,0,.52.05l10.71-6.18Z" transform="translate(-1020.57 -7)"/><path class="cls-26" d="M1558.63,468.92c-7.73,4.75-24.64-2.69-24.64-2.69l13,16.27,11,8.37,20.84-16.21S1568.89,462.6,1558.63,468.92Z" transform="translate(-1020.57 -7)"/><path class="cls-47" d="M1569.84,684.07s2.16,1.67,1.27,5.47c-.42,1.79-2.95,4-9.69,7-1.34.59-9.05,5.26-8.84,7.37l2.1,39.8-14.73.84-.43-39-1.4-7.64a2.26,2.26,0,0,1,1.41-2.64Z" transform="translate(-1020.57 -7)"/><path class="cls-48" d="M1540.19,666.55s2.16,1.67,1.27,5.47c-.42,1.79-3,4-9.69,7-1.34.59-9,5.26-8.84,7.37l2.1,39.8-14.74.84-.42-39-1.4-7.64a2.25,2.25,0,0,1,1.41-2.64Z" transform="translate(-1020.57 -7)"/><path class="cls-49" d="M1570.49,680.25s1.77,3.06-.67,7.65c-2.53,4.79-10.84,6.43-14,6.41a6.7,6.7,0,0,0-3.45,1,7.67,7.67,0,0,0-1.24,1.53A15.44,15.44,0,0,1,1545,699c-3.86.49-6.59-.88-7.17-2.2-.44-1-.7-7.83-.16-11,.61-3.63,12.64-6,12.64-6s4.94,1.74,8.28,1c4.45-1,8.75-2,10.52-1.53A2.13,2.13,0,0,1,1570.49,680.25Z" transform="translate(-1020.57 -7)"/><path class="cls-49" d="M1540.8,662.88s1.77,3.06-.67,7.65c-2.53,4.78-10.84,6.42-14,6.41a6.81,6.81,0,0,0-3.45,1,7.88,7.88,0,0,0-1.24,1.54,15.44,15.44,0,0,1-6.08,2.15c-3.86.48-6.59-.88-7.17-2.2-.44-1-.69-7.83-.16-11,.61-3.63,12.64-6,12.64-6s4.94,1.74,8.28,1c4.45-1,8.75-2,10.52-1.53A2.13,2.13,0,0,1,1540.8,662.88Z" transform="translate(-1020.57 -7)"/><path class="cls-43" d="M1570.28,679.2s1.77,3-.67,7.65c-2.53,4.78-10.85,6.42-14,6.41a6.78,6.78,0,0,0-3.45,1,8,8,0,0,0-1.24,1.53,15.36,15.36,0,0,1-6.08,2.16c-3.86.48-6.6-.89-7.17-2.2-.45-1-.7-7.84-.16-11,.61-3.63,12.64-6,12.64-6s4.94,1.73,8.28,1c4.45-1,8.75-2,10.52-1.53A2.13,2.13,0,0,1,1570.28,679.2Z" transform="translate(-1020.57 -7)"/><path class="cls-43" d="M1540.59,661.82s1.77,3.06-.67,7.66c-2.53,4.78-10.84,6.42-14,6.41a6.59,6.59,0,0,0-3.45,1,8,8,0,0,0-1.24,1.53,15.36,15.36,0,0,1-6.08,2.16c-3.86.48-6.59-.89-7.17-2.21-.44-1-.69-7.83-.16-11,.61-3.62,12.64-6,12.64-6s4.94,1.73,8.28,1c4.45-1,8.75-2,10.52-1.53A2.13,2.13,0,0,1,1540.59,661.82Z" transform="translate(-1020.57 -7)"/><path class="cls-50" d="M1506.29,631.86c.58-10.52,5.88-19.19,5.6-24.46-.4-7.29.34-32.9-.4-42.68-1.35-17.79,3.39-28.53,3.39-28.53s25.64,10.36,21.3,34.32c-2.22,12.25-5.58,36.61-6.32,39.17-1.18,4.93-1.95,7.89-1.95,7.89s-3.28,5.5-5.46,24.5c-.23,2-1.06,17.42-.85,21.68a6.84,6.84,0,0,0,.07.86s0,.1,0,.15a4.41,4.41,0,0,1-.48.87c-1.13,1.28-3.83,2.29-7,2.48s-5.13-.14-6.47-1.19c-.07-1-.18-2-.19-3C1507.23,645.24,1506,636.44,1506.29,631.86Z" transform="translate(-1020.57 -7)"/><path class="cls-51" d="M1530.13,552c2.57-8.4,21.73-24.84,24.84-18.7,5.46,10.77,2.59,87.68,1.74,89.28a4.44,4.44,0,0,0-.17.78c-.46,2.64-2.71,14.79-3.92,30.43-.86,11.21-1.52,26.41-1.41,29.44a2.36,2.36,0,0,0,0,.3c-.07,1.91-3.54,3.65-8,3.91-3.77.23-5.27-.66-6.3-2.13,0-.67,0-1.34,0-2-.4-19.25-1.46-28.63-1.58-33.48-.27-10.9.12-17.16,2.66-27.06-1-10.74-8.33-50.38-10.49-61.26C1525.05,549.07,1527.24,561.42,1530.13,552Z" transform="translate(-1020.57 -7)"/><path class="cls-51" d="M1555.62,544.59l-23.36,26.57s-10.11-9.7-7.5-31C1527.29,536.62,1555.62,544.59,1555.62,544.59Z" transform="translate(-1020.57 -7)"/><path class="cls-52" d="M1551.05,435.26l-4,2.3V448l6-3.49a2.07,2.07,0,0,0,1-2.17Z" transform="translate(-1020.57 -7)"/><path class="cls-52" d="M1523.15,468.35l1.71-20.94,25.83-11.27-6.84,9.67-.66,8.1c1.43,1.55,3.7,3.8,2.15,3.8a2.6,2.6,0,0,0-2.62,1.94l-.55,6.75s-3.81,8.45-13.35,7.68C1521.47,473.49,1523.15,468.35,1523.15,468.35Z" transform="translate(-1020.57 -7)"/><path class="cls-53" d="M1550.69,436.68l-6.84,9.66.42,7.06c1.44,1.55,7,1.77,5.81,2.73a8.84,8.84,0,0,1-5.11,1.65,2.2,2.2,0,0,0-2.14,2l-.66,10.22a42.82,42.82,0,0,1-7.35,3.71c-.17-21.4.75-27.17.75-27.17l-.88-2.86Z" transform="translate(-1020.57 -7)"/><path class="cls-26" d="M1541.76,445.57,1543,454l6.31-3.93.88-23.4a7.7,7.7,0,0,0-1.43-6.24c-2.42-2.92-10.5-5.16-19.56-1.46-.09,0-17.86,7.47-9,26.31,2.17,4.61,3.47,5.65,3.65,7.66a8.52,8.52,0,0,0,.53.8c3.22,4.2,9.76,2.79,11.68-2.14S1541.76,445.57,1541.76,445.57Z" transform="translate(-1020.57 -7)"/><path class="cls-26" d="M1524.81,454.27a7.62,7.62,0,0,1-1-1.36c-.14-1.48-.87-2.43-2.11-4.66,3,3.41,9.59,5.28,13.19-.51,4.2-6.74,12.22-9.66,12.58-12.21.54-3.77.43-7,2.15-10.36a7.19,7.19,0,0,0,.58-1.55,8.28,8.28,0,0,1,0,3l-.88,23.4L1543,454l-1.21-8.4s-3.87,1.08-5.77,6.07C1534.2,456.3,1528.2,457.93,1524.81,454.27Z" transform="translate(-1020.57 -7)"/><path class="cls-54" d="M1544.22,454.64c2.77,2.24,6.44,2.83,6.34.15,0,0,1.71-7.73,1.71-9.6V433.33c0-.22-2.11-6.69-2.11-6.69-.71,1.1-1.24,10.61-1.24,10.61s-3.43,3.12-3.43,5.4V448l-2,1.51-.08-3.34s-2.68,0-2.62,1.09C1541,450.44,1541.89,452.76,1544.22,454.64Z" transform="translate(-1020.57 -7)"/><path class="cls-52" d="M1543.6,447a1.79,1.79,0,0,0-1.86-1.81,2.93,2.93,0,0,0-2.55,2.66c-.42,2.36.59,5.83,3.08,6.76a1,1,0,0,0,1.33-1Z" transform="translate(-1020.57 -7)"/><path class="cls-26" d="M1506.49,490.08c-5.12-22.55,2-28.92,7.54-30.64a16.3,16.3,0,0,1,7.19-.11,48.49,48.49,0,0,1,11.88,4.53c16,8.43,22.21,14.85,22.21,14.85,7.48,6.69,4.44,18.77,3.12,28.58,0,.12-1.21,5-1.37,15.74,0,1.06.46,12.21.49,15.17.06,4.6,0,7.59-3.92,10.07-4.32,2.77-17.9,5.61-28.71,1.24-6.28-2.55-8.82-6.53-9.83-9.2a9.58,9.58,0,0,1-.54-4.22c.5-6.24.5-22.17.5-22.17Z" transform="translate(-1020.57 -7)"/><path class="cls-52" d="M1524,458.81s.82-.13,5,2.06a128.05,128.05,0,0,1,13.25,8.15c-17-5.58-22-8.65-22-8.65A7.7,7.7,0,0,0,1524,458.81Z" transform="translate(-1020.57 -7)"/><path class="cls-52" d="M1576.09,470.08a10.59,10.59,0,0,0-2.35-4.56c-2.09-2.39-4.21-3.07-5.83-2.59,5.87-4.17,11.62-7.84,15.65-10.68,2.07-1.53,8.14-3.86,10.37-.7.81,1.15-1.36,10.63-3,11.92-2.93,2.32-9.19,7.26-15.27,11.88A7.21,7.21,0,0,0,1576.09,470.08Z" transform="translate(-1020.57 -7)"/><path class="cls-26" d="M1560.87,485.64c-6,1-9.76-1.58-11.54-4.06a5.15,5.15,0,0,1,1.21-7.17c6.38-4.52,19.16-13.65,19.73-14.06a4.68,4.68,0,0,1,3.75.89,13.57,13.57,0,0,1,5.45,11,5.86,5.86,0,0,1-.64,2.39c-.72.56-8.58,6.43-10.63,7.9A17.9,17.9,0,0,1,1560.87,485.64Z" transform="translate(-1020.57 -7)"/><path class="cls-52" d="M1591.59,408.93l2.39-7.46,3.52-3.34a1.29,1.29,0,0,1,1.4.59,1.26,1.26,0,0,1-.26,1.43l-2.09,2.39-1.25,6.51a.21.21,0,0,0,.33.21l3.08-2.35a2.31,2.31,0,0,1,1.36,0,1.21,1.21,0,0,1,.77,1.65,1.9,1.9,0,0,1,1.76.15,1.6,1.6,0,0,1,.56,1.62,1.67,1.67,0,0,1,1.68.22c.89.62.41,1.83.19,2.09s-1.25,1.8-1.25,1.8a8.9,8.9,0,0,1-.73,4.15c-.66,1.46-4.63,8.08-4.63,8.08a7.8,7.8,0,0,1-3.56-.52,14.7,14.7,0,0,1-4.26-2.05l-1-8.37.6-4.49a2.45,2.45,0,0,1,.6-1.34Z" transform="translate(-1020.57 -7)"/><path class="cls-52" d="M1582,455.94l8.38-33.09a5.66,5.66,0,0,1,5.72-.62c3.27,1.43,2.45,4.09,2.45,4.09L1595.28,455a13.2,13.2,0,0,1-4,8.17,6.3,6.3,0,0,1-2.1,1.38C1586.3,465.54,1582,455.94,1582,455.94Z" transform="translate(-1020.57 -7)"/><path class="cls-26" d="M1780.64,759.65a10.63,10.63,0,0,0-9.61,0l-73.61,42v44.71l45.72,26.08L1820.5,827V783.08Z" transform="translate(-1020.57 -7)"/><polygon class="cls-26" points="676.85 794.26 722.57 820.66 799.92 776.08 753.88 749.38 676.85 794.26"/><path class="cls-18" d="M1697.09,782.46h1.26a4.91,4.91,0,0,1,.71-.49l71.36-41.48a10.7,10.7,0,0,1,9.64,0l38.43,22.2c.25.14,2,.67,2,.67v14a3.29,3.29,0,0,1-2,2.86l-71.36,41.48a10.68,10.68,0,0,1-9.63,0l-38.44-22.2a4.91,4.91,0,0,1-2-3.78V782.46Z" transform="translate(-1020.57 -7)"/><path class="cls-19" d="M1818.49,760.54l-38.43-22.19a10.63,10.63,0,0,0-9.64,0l-71.36,41.47c-2.64,1.54-2.63,4,0,5.58l38.44,22.19a10.61,10.61,0,0,0,9.63,0l71.36-41.47C1821.16,764.58,1821.15,762.07,1818.49,760.54Z" transform="translate(-1020.57 -7)"/><g class="cls-40"><polygon class="cls-55" points="783.16 773.36 783.16 776 787.19 773.66 787.19 771.02 783.16 773.36"/><polygon class="cls-56" points="730.94 803.7 730.94 806.35 775.5 780.46 775.5 777.81 730.94 803.7"/><polygon class="cls-20" points="789 769.96 789 772.61 793.03 770.26 793.03 767.62 789 769.96"/></g><path class="cls-18" d="M1697.09,762.16h1.26a4.91,4.91,0,0,1,.71-.49l71.36-41.48a10.7,10.7,0,0,1,9.64,0l38.43,22.2c.25.14,2,.67,2,.67v14a3.29,3.29,0,0,1-2,2.86l-71.36,41.48a10.68,10.68,0,0,1-9.63,0l-38.44-22.2a4.92,4.92,0,0,1-2-3.78V762.16Z" transform="translate(-1020.57 -7)"/><path class="cls-19" d="M1818.49,740.24l-38.43-22.19a10.63,10.63,0,0,0-9.64,0l-71.36,41.47c-2.64,1.54-2.63,4,0,5.58l38.44,22.19a10.61,10.61,0,0,0,9.63,0l71.36-41.47C1821.16,744.28,1821.15,741.77,1818.49,740.24Z" transform="translate(-1020.57 -7)"/><g class="cls-40"><polygon class="cls-55" points="783.16 753.06 783.16 755.7 787.19 753.36 787.19 750.72 783.16 753.06"/><polygon class="cls-57" points="730.94 783.4 730.94 786.04 775.5 760.15 775.5 757.51 730.94 783.4"/><polygon class="cls-20" points="789 749.66 789 752.31 793.03 749.96 793.03 747.32 789 749.66"/></g><path class="cls-18" d="M1697.09,741.86h1.26a4.91,4.91,0,0,1,.71-.49l71.36-41.48a10.7,10.7,0,0,1,9.64,0l38.43,22.2c.25.14,2,.67,2,.67v14a3.29,3.29,0,0,1-2,2.86l-71.36,41.48a10.68,10.68,0,0,1-9.63,0l-38.44-22.2a4.92,4.92,0,0,1-2-3.78V741.86Z" transform="translate(-1020.57 -7)"/><path class="cls-19" d="M1818.49,719.94l-38.43-22.19a10.63,10.63,0,0,0-9.64,0l-71.36,41.47c-2.64,1.53-2.63,4,0,5.58L1737.53,767a10.61,10.61,0,0,0,9.63,0l71.36-41.47C1821.16,724,1821.15,721.47,1818.49,719.94Z" transform="translate(-1020.57 -7)"/><g class="cls-40"><polygon class="cls-55" points="783.16 732.76 783.16 735.4 787.19 733.06 787.19 730.42 783.16 732.76"/><polygon class="cls-58" points="730.94 763.1 730.94 765.75 775.5 739.86 775.5 737.21 730.94 763.1"/><polygon class="cls-20" points="789 729.36 789 732.01 793.03 729.66 793.03 727.02 789 729.36"/></g><path class="cls-18" d="M1697.09,721.56h1.26a4.91,4.91,0,0,1,.71-.49l71.36-41.48a10.7,10.7,0,0,1,9.64,0l38.43,22.2c.25.14,2,.67,2,.67v14a3.29,3.29,0,0,1-2,2.86l-71.36,41.48a10.68,10.68,0,0,1-9.63,0l-38.44-22.2a4.92,4.92,0,0,1-2-3.78V721.56Z" transform="translate(-1020.57 -7)"/><path class="cls-20" d="M1818.49,699.64l-38.43-22.19a10.63,10.63,0,0,0-9.64,0l-71.36,41.47c-2.64,1.53-2.63,4,0,5.58l38.44,22.19a10.61,10.61,0,0,0,9.63,0l71.36-41.47C1821.16,703.68,1821.15,701.17,1818.49,699.64Z" transform="translate(-1020.57 -7)"/><g class="cls-40"><polygon class="cls-55" points="783.16 712.46 783.16 715.1 787.19 712.76 787.19 710.12 783.16 712.46"/><polygon class="cls-59" points="730.94 742.8 730.94 745.45 775.5 719.55 775.5 716.91 730.94 742.8"/><polygon class="cls-20" points="789 709.06 789 711.71 793.03 709.36 793.03 706.72 789 709.06"/></g><polygon class="cls-26" points="722.57 865.3 722.57 820.66 676.85 794.26 676.85 839.34 722.57 865.3"/><path class="cls-60" d="M1634.4,766.47c-7.28-20-60.3-51.22-117.11-27.55-49.15,20.48-57.53,58-57.53,58-2.51,10.28,3,21.14,16.77,29.06,23,13.27,60.13,13.27,83,0l64.33-37.38C1634.13,782.56,1637.62,774.14,1634.4,766.47Z" transform="translate(-1020.57 -7)"/><path class="cls-61" d="M1634.4,754.57c-7.28-20-60.3-51.22-117.11-27.55-49.15,20.48-57.53,58-57.53,58-2.51,10.28,3,21.13,16.77,29,23,13.27,60.13,13.28,83,0l64.33-37.39C1634.13,770.66,1637.62,762.24,1634.4,754.57Z" transform="translate(-1020.57 -7)"/><path class="cls-62" d="M1622.19,771.61c-14.74,5.47-28.21-3.37-49.69,5s-37.06,40-48,43.38-38.67-1-50.53-10.53c-12.64-10.11-14.74-16-14.12-24.85l-.08.31c-2.51,10.28,3,21.13,16.77,29,23,13.27,60.13,13.28,83,0l64.33-37.39c10.3-6,13.79-14.4,10.57-22.07C1634.4,754.57,1636.93,766.13,1622.19,771.61Z" transform="translate(-1020.57 -7)"/><path class="cls-26" d="M1570.61,732.12a3.25,3.25,0,0,0-2,4.51c1,2,3.23,4.2,8.39,4.65,7,.61,16.44-3.69,29.62-3.33a.71.71,0,0,0,.6-1.15,20.48,20.48,0,0,0-14.19-7.25A69.59,69.59,0,0,0,1570.61,732.12Z" transform="translate(-1020.57 -7)"/><path class="cls-63" d="M1599.71,731.17l-5.33-3.08c-3.9-2.51-9.41-2.29-15.53,1.24a38.47,38.47,0,0,0-9.67,8.27c1.2,1.7,3.49,3.31,7.82,3.68,6.1.53,14.16-2.69,24.93-3.25a14.83,14.83,0,0,0-2.88-6.48Z" transform="translate(-1020.57 -7)"/><path class="cls-20" d="M1605.31,738c-2.89-8-10.83-10.41-20.2-5a38.36,38.36,0,0,0-9.55,8.14c.46.08.93.15,1.44.19C1583.72,741.87,1592.82,737.89,1605.31,738Z" transform="translate(-1020.57 -7)"/><path class="cls-50" d="M1288.21,519.34c-.6,6.63-.87,11.24-1.45,16.55-1,8.88-3.61,29.28-3.78,35.63,0,0,1.15,5.59-5.21,5.32-4-.16-3.65-3.12-3.65-3.12s-1.46-21.64-1.88-27.57a124.28,124.28,0,0,1,1.61-27.43Z" transform="translate(-1020.57 -7)"/><path class="cls-52" d="M1268.91,473.89l-3.65,3.44,4.34,3.36a14.33,14.33,0,0,0,5.77-1.39c2.72-1.4-2.82-4.07-2.82-4.07Z" transform="translate(-1020.57 -7)"/><path class="cls-52" d="M1242.62,488.44s3.21-1.47,7.46-3.83,15.15-9.41,15.15-9.41,3,.21,4,2.26c1,2.24.37,3.23.37,3.23s-8.65,7.35-12.62,11-11.33,10.29-15.3,10.77-6.65-4.86-6.65-4.86Z" transform="translate(-1020.57 -7)"/><path class="cls-64" d="M1271.63,474.76,1283.05,441a.9.9,0,0,1,.26-.4s-.14-.41-.14-.41l1,.15a1.24,1.24,0,0,1,.36.11L1325.15,464a1.62,1.62,0,0,1,.72,1.92l-11.42,33.73a1,1,0,0,1-1,.67l-1-.14.07-.28-40.12-23.17A1.63,1.63,0,0,1,1271.63,474.76Z" transform="translate(-1020.57 -7)"/><path class="cls-26" d="M1270.66,474.62l11.42-33.73a1,1,0,0,1,1.45-.55l40.65,23.47a1.62,1.62,0,0,1,.72,1.92l-11.42,33.73a1,1,0,0,1-1.44.55l-40.66-23.47A1.64,1.64,0,0,1,1270.66,474.62Z" transform="translate(-1020.57 -7)"/><path class="cls-52" d="M1273.56,461.66l-8.33,13.54,4.28,3c2.73-2.81,3.33-9.18,3.33-9.18l1.65-4.33C1275.26,462.3,1273.56,461.66,1273.56,461.66Z" transform="translate(-1020.57 -7)"/><polygon class="cls-65" points="301.53 458.69 263.38 436.66 252.89 467.66 291.04 489.69 301.53 458.69"/><path class="cls-20" d="M1310.57,466.86a.33.33,0,0,1-.16-.05l-3.08-1.79a.32.32,0,0,1-.11-.44.31.31,0,0,1,.43-.11l3.08,1.8a.31.31,0,0,1,.11.43A.3.3,0,0,1,1310.57,466.86Z" transform="translate(-1020.57 -7)"/><path class="cls-20" d="M1316.06,470.06a.3.3,0,0,1-.16-.05l-4.13-2.4a.32.32,0,0,1-.11-.44.31.31,0,0,1,.43-.11l4.13,2.41a.31.31,0,0,1,.11.43A.33.33,0,0,1,1316.06,470.06Z" transform="translate(-1020.57 -7)"/><path class="cls-20" d="M1313.57,471a.37.37,0,0,1-.16-.05l-3.87-2.25a.32.32,0,1,1,.33-.55l3.86,2.26a.32.32,0,0,1,.12.43A.33.33,0,0,1,1313.57,471Z" transform="translate(-1020.57 -7)"/><path class="cls-20" d="M1309.7,468.78a.34.34,0,0,1-.16,0l-5.67-3.31a.32.32,0,0,1-.11-.44.31.31,0,0,1,.43-.11l5.68,3.31a.32.32,0,0,1,.11.43A.33.33,0,0,1,1309.7,468.78Z" transform="translate(-1020.57 -7)"/><path class="cls-20" d="M1302.41,464.52a.32.32,0,0,1-.16,0l-4-2.36a.32.32,0,0,1-.11-.44.31.31,0,0,1,.43-.11l4,2.36a.32.32,0,0,1,.11.44A.29.29,0,0,1,1302.41,464.52Z" transform="translate(-1020.57 -7)"/><path class="cls-20" d="M1298.36,462.16a.29.29,0,0,1-.16,0l-5.67-3.31a.34.34,0,0,1-.12-.44.32.32,0,0,1,.44-.11l5.67,3.31a.31.31,0,0,1,.11.43A.32.32,0,0,1,1298.36,462.16Z" transform="translate(-1020.57 -7)"/><path class="cls-20" d="M1307.25,469.78a.33.33,0,0,1-.16,0l-2.15-1.25a.32.32,0,0,1-.12-.43.32.32,0,0,1,.44-.12l2.15,1.26a.31.31,0,0,1,.11.43A.32.32,0,0,1,1307.25,469.78Z" transform="translate(-1020.57 -7)"/><path class="cls-20" d="M1310.73,471.81a.3.3,0,0,1-.16-.05l-2.37-1.38a.31.31,0,0,1,.32-.54l2.37,1.38a.31.31,0,0,1,.11.43A.32.32,0,0,1,1310.73,471.81Z" transform="translate(-1020.57 -7)"/><path class="cls-20" d="M1314.7,474.12a.29.29,0,0,1-.16,0l-2.28-1.33a.32.32,0,1,1,.31-.55l2.29,1.33a.32.32,0,0,1,.11.44A.31.31,0,0,1,1314.7,474.12Z" transform="translate(-1020.57 -7)"/><path class="cls-20" d="M1307.32,472.25a.3.3,0,0,1-.16-.05l-2-1.15a.32.32,0,0,1-.12-.43.32.32,0,0,1,.44-.12l2,1.16a.31.31,0,0,1,.11.43A.32.32,0,0,1,1307.32,472.25Z" transform="translate(-1020.57 -7)"/><path class="cls-20" d="M1314,476.16a.33.33,0,0,1-.16-.05l-4.6-2.68a.32.32,0,0,1-.12-.43.31.31,0,0,1,.43-.12l4.61,2.69a.31.31,0,0,1,.11.43A.3.3,0,0,1,1314,476.16Z" transform="translate(-1020.57 -7)"/><path class="cls-20" d="M1306.24,481.22a.33.33,0,0,1-.16-.05l-3.08-1.79a.34.34,0,0,1-.12-.44.32.32,0,0,1,.44-.11l3.08,1.8a.31.31,0,0,1,.11.43A.3.3,0,0,1,1306.24,481.22Z" transform="translate(-1020.57 -7)"/><path class="cls-20" d="M1311.72,484.42a.33.33,0,0,1-.16-.05l-4.12-2.4a.34.34,0,0,1-.12-.44.32.32,0,0,1,.44-.11l4.12,2.41a.32.32,0,0,1,.12.43A.33.33,0,0,1,1311.72,484.42Z" transform="translate(-1020.57 -7)"/><path class="cls-20" d="M1309.24,485.4a.33.33,0,0,1-.16,0l-3.87-2.25a.32.32,0,0,1-.11-.44.31.31,0,0,1,.43-.11l3.87,2.26a.31.31,0,0,1,.11.43A.3.3,0,0,1,1309.24,485.4Z" transform="translate(-1020.57 -7)"/><path class="cls-20" d="M1305.37,483.14a.32.32,0,0,1-.16,0l-5.67-3.31a.32.32,0,0,1-.11-.44.31.31,0,0,1,.43-.11l5.67,3.31a.32.32,0,0,1,.12.43A.33.33,0,0,1,1305.37,483.14Z" transform="translate(-1020.57 -7)"/><path class="cls-20" d="M1294,476.52a.29.29,0,0,1-.16,0l-5.67-3.31a.34.34,0,0,1-.12-.44.32.32,0,0,1,.44-.11l5.67,3.31a.31.31,0,0,1,.11.43A.32.32,0,0,1,1294,476.52Z" transform="translate(-1020.57 -7)"/><path class="cls-20" d="M1287,467.52a.29.29,0,0,1-.16,0l-5.68-3.31a.33.33,0,0,1-.11-.44.32.32,0,0,1,.44-.11l5.67,3.31a.31.31,0,0,1,.11.43A.33.33,0,0,1,1287,467.52Z" transform="translate(-1020.57 -7)"/><path class="cls-20" d="M1287.6,465.26a.32.32,0,0,1-.16,0l-5.67-3.31a.32.32,0,1,1,.32-.55l5.67,3.31a.32.32,0,0,1,.11.44A.29.29,0,0,1,1287.6,465.26Z" transform="translate(-1020.57 -7)"/><path class="cls-20" d="M1302.92,484.14a.3.3,0,0,1-.16-.05l-2.15-1.25a.32.32,0,1,1,.31-.55l2.16,1.26a.31.31,0,0,1,.11.43A.32.32,0,0,1,1302.92,484.14Z" transform="translate(-1020.57 -7)"/><path class="cls-20" d="M1306.4,486.17a.3.3,0,0,1-.16-.05l-2.37-1.38a.31.31,0,1,1,.32-.54l2.37,1.38a.31.31,0,0,1,.11.43A.32.32,0,0,1,1306.4,486.17Z" transform="translate(-1020.57 -7)"/><path class="cls-20" d="M1310.37,488.48a.29.29,0,0,1-.16,0l-2.29-1.33a.31.31,0,0,1-.11-.43.31.31,0,0,1,.43-.12l2.29,1.33a.32.32,0,0,1,.11.44A.32.32,0,0,1,1310.37,488.48Z" transform="translate(-1020.57 -7)"/><path class="cls-20" d="M1303,486.61a.3.3,0,0,1-.16-.05l-2-1.15a.32.32,0,0,1-.12-.43.32.32,0,0,1,.44-.12l2,1.16a.31.31,0,0,1,.11.43A.33.33,0,0,1,1303,486.61Z" transform="translate(-1020.57 -7)"/><path class="cls-20" d="M1309.69,490.52a.3.3,0,0,1-.16,0l-4.6-2.68a.32.32,0,1,1,.32-.55l4.6,2.69a.31.31,0,0,1,.11.43A.32.32,0,0,1,1309.69,490.52Z" transform="translate(-1020.57 -7)"/><path class="cls-66" d="M1243.32,540a4.28,4.28,0,0,1,.1-.71Z" transform="translate(-1020.57 -7)"/><path class="cls-51" d="M1275.33,548.79c-.51,2.57-36.52-9.81-36.19-13-2.53,8.21-4.33,13.67-4.74,14.84-6,17.06,13.2,24,16.11,25.59l.38.2a25,25,0,0,0,28.78-4.12c13.3-12.62-.84-8.11,4.44-11l18.41-13.22C1300.64,534.89,1287,548.42,1275.33,548.79Z" transform="translate(-1020.57 -7)"/><path class="cls-51" d="M1324.53,537.7a8.08,8.08,0,0,0-2.11-6.55c-5.45-5.23-13.34-.74-13.34-.74l-43.42,23.16c1.49-.75,3.48-.6,5.68.67,4.56,2.64,8.25,9,8.23,14.26,0,2.63-.94,4.47-2.44,5.32,0,0,44.86-30.76,44.86-30.76l.19-.11S1324.36,540.19,1324.53,537.7Z" transform="translate(-1020.57 -7)"/><path class="cls-52" d="M1243.72,484.8c-1.42,4.55-7.09,24.69-7.09,24.69s-5.37,5.91-10.05,1.83c-3.07-2.68-1.28-14.94.91-24.16.73-3.07,1-10.15,5.6-12.67C1238.24,471.65,1245.18,480.13,1243.72,484.8Z" transform="translate(-1020.57 -7)"/><path class="cls-20" d="M1255.77,479.85c-4.13,1.58-9.3,1.74-10.33-.7-.35-.83-.48-.74-.49-.27l.36,3.33a25.88,25.88,0,0,1-.36-3.33l-.59-5.35c-1.46-.11-3.84-.16-5.71-.12-1.48,0-7.49,2.93-6,16.22,1.11,9.76,8.1,25.59,7.79,34.75-.14,4.06-3.37,16.71-3.54,17.37-.33,3.23,1.75,9.79,7.34,13.18,7.83,4.75,20.81,4.61,28.8,0,3.4-2,5.34-4.45,5.85-7-.79-2-4.42-14.06-5-18.27-.64-4.84,4.07-18.1,4.29-20.12a26.72,26.72,0,0,0,.07-5c.35-5.71.54-9.49.54-9.49a30.35,30.35,0,0,0-4.06-5.2l-9.68-7.14C1262.36,481,1258.24,478.91,1255.77,479.85Z" transform="translate(-1020.57 -7)"/><path class="cls-20" d="M1267.39,484.42l14.41,11.74c1.8,1.49,2,3.09,1.62,5.39-.61,3.34-2.24,7.8-6.59,9.18-7.23,2.3-14.67-18.13-14.67-18.13Z" transform="translate(-1020.57 -7)"/><path class="cls-52" d="M1268.21,469.67s-1.58,1.88-4.63.56a1.11,1.11,0,0,0-1.5.83l-3.62,12.74-14.57-1.75,6.16-21.95,15.91.19Z" transform="translate(-1020.57 -7)"/><path class="cls-52" d="M1258.66,449.35c-5.38-4.27-17.55,7.44-18.31.55-.74-6.68,2-18.37,14.84-19.48s15.53,5.94,16.09,8.16,2,10.95,2,10.95a20.3,20.3,0,0,1-1.67,4.64s.37,1.76.46,2.32a25.68,25.68,0,0,1-.65,4.92c-.37,1.67-3,7.61-3.25,8.26s-3.88,1-4.91-3.25c-.56-2.32-.28-2.6-.28-2.6Z" transform="translate(-1020.57 -7)"/><path class="cls-26" d="M1245.48,433.06c3.66-2.26,19.3-7.84,26.91,2.37,3.72,5,3.09,17.32-9.65,23a20.35,20.35,0,0,1-2.13.81,11,11,0,0,0-3.24,5c-1.67,5.12-8.24,6.92-11.75,2.83-.2-.25-.4-.51-.58-.78-.3-2-1.45-3.15-4.14-7.58C1232.49,444.89,1241,435.8,1245.48,433.06Z" transform="translate(-1020.57 -7)"/><path class="cls-26" d="M1238,445.61c.31-2.77,3.21-3.56,4.08-3.58s5.92-.41,5.82,6.1c0,2.66-2.07,5.59-5.12,5.77-.4,0,1.1,6.11,3.9,7.57,3.5,1.83,8.52-.91,10.8-4.13a6.58,6.58,0,0,1,3.42-2.61c2.6-.75,3.35.55,3.35.55,7.42-3,9.86-10.76,10.13-13.39a16.92,16.92,0,0,1-7.11,13.9,15.46,15.46,0,0,1-3.29,6.78,10.54,10.54,0,0,0,.08-4.79c-.43.22-.84.45-1.3.66a21.24,21.24,0,0,1-2.13.81,10.93,10.93,0,0,0-3.25,5c-1.65,5.12-8.33,6.86-11.79,2.74a7.4,7.4,0,0,1-.53-.72c-.12-.82-3.7-6.78-4.14-7.58A19.67,19.67,0,0,1,1238,445.61Z" transform="translate(-1020.57 -7)"/><path class="cls-52" d="M1264.07,458a1.83,1.83,0,0,0-1.9-1.85,3,3,0,0,0-2.59,2.71c-.43,2.4.6,5.93,3.13,6.87a1,1,0,0,0,1.36-1Z" transform="translate(-1020.57 -7)"/><path class="cls-52" d="M1273.16,487.91l.15.06c5,2.27,5.43,8.61,7.92,14.27,1.92,4.35,9.06,23.77,9.06,23.77s.9,7.47-4.53,7.47-15.56-18.5-18.66-26.05C1262.05,495.11,1267.89,485.6,1273.16,487.91Z" transform="translate(-1020.57 -7)"/><path class="cls-52" d="M1286.7,520.71s2.72-2.26,6.19-5.66S1305,502,1305,502s3-.61,4.45,1.13,1.21,3,1.21,3-6.42,9.35-9.29,14-8.22,12.9-11.92,14.41-7.7-2.94-7.7-2.94Z" transform="translate(-1020.57 -7)"/><path class="cls-52" d="M1310.7,506.15l5.09-8.12s.11-10.52.57-12.56c0,0-1.7-.79-2.38,1.47s-1.81,6.91-1.81,6.91-6.79,6.33-7.13,8.15Z" transform="translate(-1020.57 -7)"/><path class="cls-52" d="M1315.79,498l2.49-3.51.91-4.3-.34-3.69s-1.1,3.46-1.4,4.13c-.68,1.58-1.75,1.25-1.75,1.25l-2,1.48Z" transform="translate(-1020.57 -7)"/><path class="cls-52" d="M1256.08,475.64c-3.54-2.22-3.06-.89-5.42-1.12-1,0-1.92.06-2.78.11-.23,0,.29-.83.12-.79l-3.64-.31s-2.5-.22-4.42,4.1c-2.53,5.69-1.74,12.64,6.15,15.84,8.58,3.48,12-3.69,16.54-7a9.21,9.21,0,0,1,4.95-2S1257.13,476.3,1256.08,475.64Z" transform="translate(-1020.57 -7)"/><path class="cls-51" d="M1324.3,538.57,1310,537.33a123.35,123.35,0,0,0-2.79,27.33c.15,5.94.68,27.63.68,27.63s-.46,2.94,3.5,3.28c6.35.54,5.44-5.1,5.44-5.1.45-6.33,4-26.6,5.32-35.43C1322.94,549.76,1323.41,545.17,1324.3,538.57Z" transform="translate(-1020.57 -7)"/><path class="cls-26" d="M1254.61,449.49a4.67,4.67,0,0,1,3.55,4.72c3.12,12.41,2.06,15.68-1.57,24.23-6.13,14.46-9.3,15.71-7.63,31.23,1,9-8,16.06-16.42,12.75-11.4-4.46-13.12-21.62,1-39.84,3.2-4.13,8.45-11.69,4.79-24-2.2-7.35-2.69-16.71,4.18-23.39C1250.87,427.1,1254.61,449.49,1254.61,449.49Z" transform="translate(-1020.57 -7)"/><polygon class="cls-67" points="722.57 900.7 722.57 865.42 676.85 839.02 676.85 884.1 706.09 900.7 722.57 900.7"/><polygon class="cls-68" points="738.67 900.7 799.92 865.09 799.92 820.01 722.57 865.42 722.57 900.7 738.67 900.7"/><path class="cls-43" d="M1376.27,566.72a4,4,0,0,1-2-.57l-33-19.07-7.37,4.26V506.71a3.05,3.05,0,0,1,4.87-2.81l36.83,21.26a7.82,7.82,0,0,1,3.58,6.21v32a3.32,3.32,0,0,1-1.51,3A2.81,2.81,0,0,1,1376.27,566.72Zm-35-22.62,34.33,19.82c.42.24.7.25.78.21s.22-.3.22-.79v-32a5.26,5.26,0,0,0-2.29-4l-36.83-21.26c-.42-.24-.71-.26-.79-.2s-.22.3-.22.78v40.16Z" transform="translate(-1020.57 -7)"/><path class="cls-26" d="M1658,395.41a4,4,0,0,1-2-.57l-33-19.07-7.38,4.26V335.4a3.05,3.05,0,0,1,4.87-2.81l36.83,21.26a7.8,7.8,0,0,1,3.58,6.2v32a3.33,3.33,0,0,1-1.5,3A2.82,2.82,0,0,1,1658,395.41Zm-35-22.62,34.32,19.82a1.09,1.09,0,0,0,.79.21c.09-.05.21-.31.21-.79v-32a5.24,5.24,0,0,0-2.29-4l-36.83-21.26c-.42-.24-.7-.26-.78-.21s-.22.31-.22.79v40.16Z" transform="translate(-1020.57 -7)"/><path class="cls-26" d="M1645.31,373.3l-.17.1-2.53-4.39c2.82-2.61,2.57-8.85-.8-14.68a19.14,19.14,0,0,0-6.66-7c-2.41-1.39-4.83-1.72-6.68-.67-3.69,2.11-3.71,9,0,15.32a19.13,19.13,0,0,0,6.65,7,7.39,7.39,0,0,0,5.71,1.09l2.54,4.39-.28.16,6.31,10.93,2.27-1.28Zm-5.51-5.78a5.75,5.75,0,0,1-4.69-.8,15.68,15.68,0,0,1-5.8-6.53c-2.58-5.18-2.08-10.28,1.14-11.42a5.75,5.75,0,0,1,4.69.79,15.7,15.7,0,0,1,5.79,6.54C1643.52,361.27,1643,366.38,1639.8,367.52Z" transform="translate(-1020.57 -7)"/></g></g></svg>